<?xml version="1.0" encoding="UTF-8"?>
<!-- Created with Inkscape (http://www.inkscape.org/) -->
<svg width="500" height="500" version="1.1" viewBox="0 0 166.67 166.67" xmlns="http://www.w3.org/2000/svg" xmlns:cc="http://creativecommons.org/ns#" xmlns:rdf="http://www.w3.org/1999/02/22-rdf-syntax-ns#">
	<g transform="translate(-126.25 -317.63)">
		<g transform="matrix(.70944 0 0 .70944 -79.01 -13.445)">
			<circle cx="406.79" cy="584.13" r="114.96" fill="#ccc" stroke="#000" stroke-dashoffset=".805" stroke-linecap="round" stroke-linejoin="round" stroke-width="5" style="paint-order:markers fill stroke"/>
			<path d="m377.54 615.49c-3.4997 0.15513-6.4654 2.7867-9.8711 3.6074-4.0385 0.97328-9.0343-0.76709-12.623 0.94141a115.3 149.89 9.0666 0 0 13.135 46.008c0.29563-1.0257 0.73168-1.9075 1.5762-2.3398 3.5844-1.8351 8.0128 2.5111 11.959 1.709 4.2006-0.85381 8.4623-3.1972 11.01-6.6445 1.7056-2.308 0.0218-6.3599 2.0879-8.3516 3.306-3.1866 10.173 0.33898 13.479-2.8477 2.2541-2.1727 4.204-6.6436 2.2774-9.1113-1.324-1.6958-4.4883 0.87638-6.4531 0-3.8057-1.6975-7-5.3616-8.3535-9.3027-1.1744-3.4196 3.2253-8.1757 0.75976-10.82-1.8985-2.0364-5.5912 0.36329-8.3516 0-3.637-0.47867-6.9661-3.0101-10.631-2.8476zm84.578 25.178c-2.3564 0.11661-4.3715 4.8918-7.1289 5.5762-2.7133 0.6734-5.904-2.1107-8.3516-0.75976-3.1713 1.7504-3.0256 6.6039-4.9356 9.6816-1.6216 2.613-5.9204 4.3551-5.5059 7.4023 0.3889 2.8595 3.9766 5.7205 6.834 5.3164 1.7043-0.24102 1.32-4.0581 3.0371-4.1777 2.5446-0.17723 2.7744 5.7168 5.3164 5.5059 2.4488-0.2032 1.9447-5.0446 4.1758-6.0742 2.7727-1.2795 6.0767 1.2899 9.1113 0.94922 3.5197-0.39516 8.3669-0.3084 10.062-3.418 0.6245-1.1453 0.096-3.0166-0.94922-3.7969-2.3348-1.7426-6.7607 2.5257-8.7324 0.38086-1.6838-1.8316 2.2539-5.2858 0.94922-7.4043-0.5982-0.97131-2.6222-0.17242-3.2285-1.1387-0.3046-0.48535 0.15081-1.1374 0.19141-1.709 0.1436-2.0207 1.955-5.081 0.18945-6.0742-0.35374-0.19899-0.69852-0.27643-1.0352-0.25977z" fill="#adadad" fill-opacity=".7789" stroke-width="0" style="paint-order:markers fill stroke"/>
			<path d="m397.08 474.96a115.3 149.89 9.0666 0 0-7.1484 8.5957c3.1329-0.6779 6.4302-0.89096 9.8223-0.82031 3.6046 0.0751 7.7939 2.072 10.385-0.22461 0.7922-0.7022 1.0011-2.2424 0.44727-3.1445-2.3541-3.835-8.3109-3.8139-12.779-4.3457-0.24322-0.0289-0.48404-0.0371-0.72656-0.0605zm23.631 4.0176c-0.61977-0.037-1.1792 0.0744-1.6016 0.50781-0.9726 0.998-0.51465 2.9732 0.18945 4.1758 0.998 1.7046 3.132 2.5899 5.0312 3.1328 3.0724 0.87832 6.5398-0.9657 9.5859 0 2.2508 0.71359 4.6558 2.0086 5.7891 4.0801 0.684 1.2503-0.53459 3.0452 0.1914 4.2715 0.9619 1.6248 3.4264 1.6913 4.8398 2.9434 3.4066 3.0175 4.3599 8.7238 8.4473 10.725 4.1773 2.0449 9.3848-0.77739 13.953 0.0957 1.8005 0.34412 3.3371 1.5876 5.125 1.9922 3.7441 0.84723 9.2626 3.9859 11.484 0.85547 1.6976-2.3918-1.5137-5.9212-3.5117-8.0684-3.5765-3.8436-9.544-4.4582-13.953-7.3086-4.3903-2.8383-7.4799-7.7501-12.338-9.6816-2.8933-1.1504-6.4287 0.34437-9.3027-0.85352-2.135-0.88989-3.1908-3.5442-5.3144-4.4609-4.738-2.0452-10.228-1.4531-15.377-1.8047-1.0063-0.0687-2.2053-0.53986-3.2383-0.60156zm-16.711 6.6953c-3.01 7e-3 -6 0.30099-8.9043 0.95898-3.1622 0.71643-5.4534 3.7358-8.5859 4.5723-0.81245 0.21695-1.7861 0.53641-2.7891 0.84375a115.3 149.89 9.0666 0 0-23.816 52.549 115.3 149.89 9.0666 0 0-4.9395 74.863c0.12432 0.0187 0.25564 0.0106 0.37891 0.0332 3.4224 0.62859 6.4532 3.9665 9.8809 3.3672 6.1378-1.0732 12.371-5.8564 14.598-11.676 1.139-2.9767-3.1198-6.6453-1.5723-9.4316 1.8088-3.2568 8.3733-1.0975 10.33-4.2676 3.2327-5.237-5.3019-13.698-1.3477-18.414 5.6566-6.7462 17.607-1.1472 26.273-2.6953 5.6297-1.0056 11.049-2.9609 16.617-4.2656 2.4586-0.57611 5.9356-3.6208 7.4121-1.5723 2.3345 3.239-5.7457 6.3502-6.0645 10.33-0.2309 2.8821 1.244 5.9051 3.1445 8.084 2.533 2.9038 6.9371 3.4203 10.105 5.6133 1.2944 0.89593 3.4204 1.4926 3.5996 3.0566 0.1233 1.0765-1.1076 1.9127-1.9375 2.6094-1.6571 1.3911-4.6514 1.0783-5.8027 2.9102-1.387 2.2068-0.96814 5.3514-0.12696 7.8184 0.7907 2.319 3.5466 3.5245 4.584 5.7441 0.8868 1.8972 1.8813 4.1576 1.2559 6.1562-0.7115 2.2737-4.7583 2.5941-5.166 4.9414-0.6015 3.463 2.0534 7.1379 4.7168 9.4316 2.565 2.2089 6.4408 4.2006 9.6562 3.1426 3.6699-1.2076 4.088-6.6187 6.7363-9.4316 1.3863-1.4725 4.3556-1.8261 4.7148-3.8164 0.9417-5.2176-6.8094-8.5528-8.084-13.699-0.7567-3.0551-0.63688-6.4776 0.44922-9.4316 1.1418-3.1056 2.8369-8.5969 6.0625-7.8594 4.2505 0.9719 2.0776 8.4846 2.6953 12.801 0.1383 0.96613 0.11561 1.9481 0.22461 2.918 0.4564 4.0606 1.9054 8.0422 1.7969 12.127-0.1399 5.2683-3.584 10.242-3.1445 15.494 0.2608 3.1169 0.63976 7.2322 3.3691 8.7598 3.5872 2.0077 8.5295-0.25697 12.127-2.2461 4.4507-2.4608 7.3076-7.137 10.328-11.229 3.0881-4.1831 7.35-8.3003 7.8613-13.475 0.9962-10.082-8.7184-18.678-9.8809-28.742-0.5957-5.1571 2.9099-10.48 1.5723-15.496-1.0919-4.0946-5.3533-6.6261-7.4121-10.33-2.2827-4.1067-2.2716-9.5078-5.3887-13.023-0.9116-1.0282-3.3628-0.66691-3.5938-2.0215-0.6866-4.026 4.1996-7.9453 8.084-9.207 2.2625-0.73494 5.6741 3.5718 6.9629 1.5723 1.8817-2.9194-6.1027-4.8404-6.2891-8.3086-0.094-1.7434 3.256-2.8388 2.6953-4.4922-1.1115-3.2778-6.6478-2.1051-9.6562-3.8164-3.6179-2.058-5.8658-6.5375-9.8809-7.6348-1.7464-0.47727-4.021-0.51435-5.3887 0.67188-1.2895 1.1184 0.26234 4.3744-1.3477 4.9414-3.4882 1.2285-5.3417-5.8621-8.9824-6.5117-2.4496-0.43708-5.0086 3.2248-7.1856 2.0195-5.1184-2.8339-2.1297-11.711-4.9414-16.842-2.2437-4.0941-5.504-7.7116-9.207-10.555-3.505-2.691-7.6188-4.7448-11.9-5.8379-4.8089-1.2276-9.8799-2.0133-14.896-2.002zm104.85 82.994c-1.4548-0.0191-3.0899 0.45934-4.5078 0.61523-1.6935 0.18619-3.861-0.0872-4.9668 1.209-1.8064 2.1172-0.17998 5.583-0.67188 8.3223-0.3205 1.7845-1.3737 3.4242-1.4766 5.2344-0.1106 1.9462 0.21695 3.961 0.93945 5.7715 0.9131 2.2879 2.0392 4.8576 4.1621 6.1074 1.8497 1.089 4.5332 1.6277 6.4121 0.58984 1.5763-0.87069 0.89657-3.9028 2.4473-4.8184 1.0862-0.64137 2.8434 0.97254 3.7812 0.12891 2.1664-1.9488 0.6699-5.8051 0.625-8.7188-0.018-1.1657 0.0708-2.394-0.35743-3.4785-0.5479-1.3888-2.0924-2.2077-2.707-3.5684-0.9301-2.0592 0.3929-5.1966-1.3418-6.6445-0.65708-0.54845-1.465-0.73856-2.3379-0.75z" fill="#808080" fill-opacity=".73428" stroke-width="0" style="paint-order:markers fill stroke"/>
			<path d="m401.97 469.51a114.96 114.96 0 0 0-110.15 114.62 114.96 114.96 0 0 0 96.08 113.24 115.3 149.89 9.0666 0 1-27.998-152.79 115.3 149.89 9.0666 0 1 42.064-75.078z" fill="#333" stroke="#000" stroke-dashoffset=".805" stroke-linecap="round" stroke-linejoin="round" stroke-width="5" style="paint-order:markers fill stroke"/>
		</g>
	</g>
</svg>
