<?xml version="1.0" encoding="UTF-8"?>
<!-- Created with Inkscape (http://www.inkscape.org/) -->
<svg width="500" height="500" version="1.1" viewBox="0 0 166.67 166.67" xmlns="http://www.w3.org/2000/svg" xmlns:cc="http://creativecommons.org/ns#" xmlns:rdf="http://www.w3.org/1999/02/22-rdf-syntax-ns#">
	<g transform="translate(-126.25 -366.96)">
		<g transform="matrix(.70944 0 0 .70944 -249.07 37.143)">
			<circle cx="646.5" cy="582.36" r="114.96" fill="#ccc" stroke="#000" stroke-dashoffset=".805" stroke-linecap="round" stroke-linejoin="round" stroke-width="5" style="paint-order:markers fill stroke"/>
			<path d="m617.25 613.72c-3.4997 0.15513-6.4654 2.7867-9.8711 3.6074-4.5246 1.0904-10.256-1.2386-13.857 1.709-1.084 0.88709-1.0693 2.6098-1.3281 3.9863-0.4683 2.4906 0.93934 5.4286-0.38086 7.5918-1.4475 2.3716-5.9356 1.7103-7.2129 4.1777-1.6065 3.1034-1.5872 8.0356 0.94922 10.439 1.2409 1.176 4.167-1.2266 5.125 0.18945 1.9962 2.9508-4.3631 6.5809-3.6074 10.062 0.6929 3.1922 4.31 4.9499 6.834 7.0234 3.4988 2.8744 7.01 8.5487 11.391 7.4023 2.9024-0.75953 1.5053-6.6054 4.1758-7.9726 3.5844-1.8352 8.0128 2.5111 11.959 1.709 4.2006-0.85381 8.4623-3.1972 11.01-6.6445 1.7056-2.308 0.0218-6.3599 2.0879-8.3516 3.306-3.1866 10.173 0.33898 13.479-2.8477 2.2541-2.1727 4.206-6.6436 2.2793-9.1113-1.324-1.6958-4.4903 0.87638-6.4551 0-3.8057-1.6975-7-5.3616-8.3535-9.3027-1.1744-3.4196 3.2253-8.1757 0.75977-10.82-1.8985-2.0364-5.5912 0.36329-8.3516 0-3.637-0.47867-6.9661-3.0101-10.631-2.8477zm84.578 25.178c-2.3564 0.11661-4.3696 4.8899-7.127 5.5742-2.7133 0.6734-5.9059-2.1088-8.3535-0.75781-3.1713 1.7504-3.0256 6.6039-4.9356 9.6816-1.6216 2.613-5.9204 4.3551-5.5059 7.4023 0.3889 2.8595 3.9766 5.7186 6.834 5.3145 1.7043-0.24102 1.32-4.0562 3.0371-4.1758 2.5446-0.17723 2.7744 5.7168 5.3164 5.5059 2.4488-0.2032 1.9447-5.0446 4.1758-6.0742 2.7727-1.2796 6.0767 1.2899 9.1113 0.94922 3.5197-0.39516 8.3669-0.30841 10.062-3.418 0.6245-1.1453 0.096-3.0166-0.94922-3.7969-2.3348-1.7426-6.7607 2.5257-8.7324 0.38086-1.6838-1.8316 2.2539-5.2858 0.94922-7.4043-0.5982-0.9713-2.6222-0.17242-3.2285-1.1387-0.3046-0.48535 0.1508-1.1374 0.1914-1.709 0.1436-2.0207 1.955-5.081 0.18946-6.0742-0.35374-0.19899-0.69853-0.27642-1.0352-0.25977z" fill="#adadad" fill-opacity=".7789" stroke-width="0" style="paint-order:markers fill stroke"/>
			<path d="m636.95 473.2a114.84 126.51 16.481 0 0-69.463 82.242 114.84 126.51 16.481 0 0-3.2852 13.982c1.8469 0.30558 3.6205 0.9153 5.0293 2.0371 1.5406 1.2267 2.6029 3.3295 2.6133 5.2988 0.013 2.4259-1.2107 5.101-3.1484 6.5605-1.6985 1.2793-4.5741-0.0667-6.3867 0.86914a114.84 126.51 16.481 0 0 0.26172 21.658c0.19793 0.1423 0.39177 0.29403 0.59766 0.41992 2.5037 1.5308 6.4431-0.90553 8.7578 0.89844 2.763 2.1533 0.75975 7.8161 3.5938 9.875 5.2718 3.83 13.128-0.49743 19.537 0.67968 3.4224 0.62859 6.4532 3.9665 9.8809 3.3672 6.1378-1.0732 12.369-5.8584 14.596-11.678 1.139-2.9767-3.1198-6.6453-1.5723-9.4316 1.8088-3.2568 8.3733-1.0955 10.33-4.2656 3.2327-5.237-5.302-13.698-1.3476-18.414 5.6566-6.7462 17.607-1.1472 26.273-2.6953 5.6297-1.0056 11.049-2.9609 16.617-4.2656 2.4586-0.57611 5.9356-3.6208 7.4121-1.5723 2.3345 3.239-5.7456 6.3502-6.0644 10.33-0.2309 2.8821 1.2439 5.9051 3.1445 8.084 2.533 2.9038 6.9371 3.4203 10.105 5.6133 1.2944 0.89593 3.4204 1.4926 3.5996 3.0566 0.1233 1.0765-1.1076 1.9127-1.9375 2.6094-1.6571 1.3911-4.6514 1.0783-5.8027 2.9102-1.387 2.2068-0.96815 5.3494-0.12695 7.8164 0.7907 2.319 3.5466 3.5265 4.584 5.7461 0.8868 1.8972 1.8813 4.1576 1.2559 6.1562-0.7115 2.2737-4.7583 2.5941-5.166 4.9414-0.6015 3.463 2.0534 7.1379 4.7168 9.4316 2.565 2.2089 6.4409 4.2006 9.6562 3.1426 3.6699-1.2076 4.088-6.6187 6.7363-9.4316 1.3863-1.4725 4.3556-1.8261 4.7148-3.8164 0.9417-5.2176-6.8094-8.5528-8.084-13.699-0.7567-3.0551-0.63688-6.4776 0.44922-9.4316 1.1418-3.1056 2.8389-8.5969 6.0644-7.8594 4.2505 0.9719 2.0757 8.4846 2.6934 12.801 0.1383 0.96611 0.11561 1.9481 0.22461 2.918 0.4564 4.0606 1.9054 8.0422 1.7969 12.127-0.1399 5.2683-3.584 10.242-3.1445 15.494 0.2608 3.1169 0.63974 7.2302 3.3691 8.7578 3.5872 2.0077 8.5294-0.25502 12.127-2.2441 4.4507-2.4608 7.3096-7.137 10.33-11.229 3.0881-4.1831 7.3481-8.3003 7.8594-13.475 0.9962-10.082-8.7184-18.68-9.8809-28.744-0.5957-5.1571 2.9099-10.478 1.5723-15.494-1.0919-4.0946-5.3533-6.6261-7.4121-10.33-2.2827-4.1067-2.2716-9.5078-5.3887-13.023-0.9116-1.0282-3.3628-0.66691-3.5938-2.0215-0.6866-4.026 4.2015-7.9453 8.0859-9.207 2.2625-0.73494 5.6721 3.5718 6.9609 1.5723 1.8817-2.9194-6.1027-4.8404-6.2891-8.3086-0.094-1.7433 3.256-2.8388 2.6953-4.4922-1.1115-3.2778-6.6478-2.1051-9.6562-3.8164-3.6179-2.058-5.8658-6.5395-9.8809-7.6367-1.7464-0.47727-4.021-0.5124-5.3887 0.67383-1.2895 1.1184 0.26233 4.3744-1.3476 4.9414-3.4882 1.2285-5.3417-5.8621-8.9824-6.5117-2.4496-0.43708-5.0087 3.2248-7.1855 2.0195-5.1184-2.8339-2.1297-11.711-4.9414-16.842-2.2437-4.0941-5.5039-7.7116-9.207-10.555-3.505-2.691-7.6188-4.7448-11.9-5.8379-7.6942-1.9642-16.056-2.7976-23.801-1.043-3.1622 0.71641-5.4533 3.7358-8.5859 4.5723-2.8371 0.7576-7.6363 2.9792-8.8047 0.28516-1.0417-2.4019 3.2392-4.3274 5.5508-5.5566 4.9457-2.6299 10.586-3.3204 16.498-3.1973 3.6046 0.0751 7.7939 2.072 10.385-0.22461 0.7922-0.7022 1.003-2.2424 0.44922-3.1445-2.3541-3.835-8.3129-3.8159-12.781-4.3477-0.19023-0.0226-0.37854-0.0276-0.56835-0.0469zm23.473 4.0059c-0.61977-0.037-1.1792 0.0744-1.6016 0.50781-0.9726 0.998-0.51465 2.9732 0.18945 4.1758 0.998 1.7046 3.132 2.5899 5.0312 3.1328 3.0724 0.87832 6.5398-0.96569 9.5859 0 2.2508 0.71359 4.6577 2.0086 5.791 4.0801 0.68399 1.2503-0.53655 3.0452 0.18945 4.2715 0.9619 1.6248 3.4263 1.6913 4.8398 2.9434 3.4066 3.0175 4.3599 8.7238 8.4473 10.725 4.1773 2.0449 9.3848-0.7774 13.953 0.0957 1.8005 0.34412 3.3371 1.5876 5.125 1.9922 3.7441 0.84723 9.2626 3.9859 11.484 0.85547 1.6976-2.3918-1.5137-5.9212-3.5117-8.0684-3.5765-3.8436-9.5421-4.4582-13.951-7.3086-4.3903-2.8383-7.4818-7.7501-12.34-9.6816-2.8933-1.1504-6.4268 0.34437-9.3008-0.85351-2.135-0.88989-3.1928-3.5442-5.3164-4.4609-4.738-2.0452-10.227-1.4531-15.375-1.8047-1.0063-0.0687-2.2073-0.53986-3.2402-0.60156zm88.143 89.688c-1.4548-0.0191-3.0899 0.46129-4.5078 0.61719-1.6935 0.18619-3.861-0.0872-4.9668 1.209-1.8064 2.1172-0.17997 5.583-0.67187 8.3223-0.3205 1.7845-1.3737 3.4242-1.4766 5.2344-0.1106 1.9462 0.21696 3.9611 0.93946 5.7715 0.9131 2.2879 2.0392 4.8576 4.1621 6.1074 1.8497 1.089 4.5332 1.6277 6.4121 0.58984 1.5763-0.87069 0.89657-3.9028 2.4473-4.8184 1.0862-0.64137 2.8434 0.97255 3.7812 0.12891 2.1664-1.9488 0.6699-5.8051 0.625-8.7188-0.018-1.1657 0.0708-2.394-0.35742-3.4785-0.5479-1.3888-2.0924-2.2077-2.707-3.5684-0.9301-2.0592 0.3929-5.1966-1.3418-6.6445-0.65707-0.54845-1.465-0.74051-2.3379-0.75195z" fill="#808080" fill-opacity=".73428" stroke-width="0" style="paint-order:markers fill stroke"/>
			<path d="m646.5 467.4a114.96 114.96 0 0 0-114.96 114.96 114.96 114.96 0 0 0 72.971 106.72 114.84 126.51 16.481 0 1-37.018-133.65 114.84 126.51 16.481 0 1 83.973-87.918 114.96 114.96 0 0 0-4.9609-0.1211z" fill="#333" stroke="#000" stroke-dashoffset=".805" stroke-linecap="round" stroke-linejoin="round" stroke-width="5" style="paint-order:markers fill stroke"/>
		</g>
	</g>
</svg>
