<?xml version="1.0" encoding="UTF-8"?>
<!-- Created with Inkscape (http://www.inkscape.org/) -->
<svg width="500" height="500" version="1.1" viewBox="0 0 166.67 166.67" xmlns="http://www.w3.org/2000/svg" xmlns:cc="http://creativecommons.org/ns#" xmlns:rdf="http://www.w3.org/1999/02/22-rdf-syntax-ns#">
	<g transform="translate(-189.25 -404.3)">
		<g transform="matrix(.70944 0 0 .70944 -379.19 74.362)">
			<circle cx="918.71" cy="582.53" r="114.96" fill="#ccc" stroke="#000" stroke-dashoffset=".805" stroke-linecap="round" stroke-linejoin="round" stroke-width="5" style="paint-order:markers fill stroke"/>
			<path d="m889.46 613.89c-3.4997 0.15513-6.4654 2.7847-9.8711 3.6055-4.5246 1.0904-10.256-1.2387-13.857 1.709-1.084 0.8871-1.0713 2.6098-1.3301 3.9863-0.4683 2.4906 0.94129 5.4306-0.37891 7.5938-1.4475 2.3716-5.9356 1.7084-7.2129 4.1758-1.6065 3.1034-1.5872 8.0376 0.94922 10.441 1.2409 1.176 4.167-1.2266 5.125 0.18945 1.9962 2.9508-4.3631 6.579-3.6074 10.061 0.6929 3.1922 4.31 4.9499 6.834 7.0234 3.4988 2.8744 7.01 8.5506 11.391 7.4043 2.9024-0.75953 1.5053-6.6054 4.1758-7.9726 3.5844-1.8352 8.0128 2.5091 11.959 1.707 4.2006-0.85381 8.4623-3.1952 11.01-6.6426 1.7056-2.308 0.0218-6.3619 2.0879-8.3535 3.306-3.1866 10.173 0.33898 13.479-2.8476 2.2541-2.1727 4.204-6.6436 2.2773-9.1113-1.324-1.6958-4.4883 0.87638-6.4531 0-3.8057-1.6975-7-5.3596-8.3535-9.3008-1.1744-3.4196 3.2253-8.1757 0.75977-10.82-1.8985-2.0364-5.5912 0.36328-8.3516 0-3.637-0.47867-6.9661-3.0101-10.631-2.8477zm84.578 25.176c-2.3564 0.1166-4.3715 4.8918-7.1289 5.5762-2.7133 0.6734-5.904-2.1107-8.3516-0.75976-3.1713 1.7504-3.0256 6.6039-4.9356 9.6816-1.6216 2.613-5.9204 4.3571-5.5059 7.4043 0.3889 2.8595 3.9766 5.7186 6.834 5.3145 1.7043-0.24102 1.32-4.0562 3.0371-4.1758 2.5446-0.17723 2.7744 5.7148 5.3164 5.5039 2.4488-0.2032 1.9447-5.0446 4.1758-6.0742 2.7727-1.2796 6.0767 1.2899 9.1113 0.94922 3.5197-0.39516 8.365-0.30645 10.061-3.416 0.6245-1.1453 0.096-3.0166-0.94922-3.7969-2.3348-1.7426-6.7588 2.5238-8.7305 0.37891-1.6838-1.8316 2.252-5.2839 0.94727-7.4024-0.5982-0.97131-2.6203-0.17242-3.2266-1.1387-0.3046-0.48535 0.14885-1.1374 0.18945-1.709 0.1436-2.0207 1.957-5.081 0.1914-6.0742-0.35373-0.19899-0.69852-0.27838-1.0352-0.26172z" fill="#adadad" fill-opacity=".7789" stroke-width="0" style="paint-order:markers fill stroke"/>
			<path d="m916.89 474.34a114.96 114.96 0 0 0-87.506 71.49 114.96 114.96 0 0 0-6.0488 23.254c0.62321 1.2635 1.3178 2.3952 3.7383 2.3144 2.1409-0.0715 3.159-1.8708 4.9277-2.0078 3.2247-0.24984 6.9132 0.2177 9.4434 2.2324 1.5406 1.2267 2.6029 3.3295 2.6133 5.2988 0.013 2.4259-1.2127 5.103-3.1504 6.5625-1.8562 1.3981-5.1314-0.37442-6.873 1.1641-3.5142 3.1044-4.7065 8.8309-4.043 13.473 0.4672 3.268 2.5741 6.5865 5.3906 8.3086 2.5037 1.5308 6.4431-0.90553 8.7578 0.89844 2.763 2.1534 0.75975 7.818 3.5938 9.877 5.2718 3.83 13.126-0.49937 19.535 0.67774 3.4224 0.62859 6.4532 3.9684 9.8809 3.3691 6.1378-1.0732 12.371-5.8584 14.598-11.678 1.139-2.9767-3.1198-6.6453-1.5723-9.4316 1.8088-3.2568 8.3733-1.0975 10.33-4.2676 3.2327-5.237-5.302-13.698-1.3476-18.414 5.6566-6.7461 17.607-1.1452 26.273-2.6934 5.6297-1.0056 11.049-2.9628 16.617-4.2676 2.4586-0.57611 5.9337-3.6208 7.4102-1.5723 2.3345 3.239-5.7437 6.3502-6.0625 10.33-0.2309 2.8821 1.2439 5.9051 3.1445 8.084 2.533 2.9038 6.9371 3.4222 10.105 5.6152 1.2944 0.89593 3.4204 1.4907 3.5996 3.0547 0.1233 1.0765-1.1076 1.9147-1.9375 2.6113-1.6571 1.3911-4.6514 1.0764-5.8027 2.9082-1.387 2.2068-0.96815 5.3514-0.12695 7.8184 0.7907 2.319 3.5466 3.5265 4.584 5.7461 0.8868 1.8972 1.8793 4.1576 1.2539 6.1562-0.7115 2.2737-4.7564 2.5922-5.1641 4.9394-0.6015 3.4631 2.0514 7.138 4.7148 9.4316 2.565 2.2089 6.4408 4.2026 9.6562 3.1445 3.6699-1.2076 4.09-6.6187 6.7383-9.4316 1.3863-1.4725 4.3556-1.8281 4.7148-3.8184 0.9417-5.2176-6.8094-8.5508-8.084-13.697-0.7567-3.0551-0.63688-6.4776 0.44922-9.4316 1.1418-3.1056 2.8369-8.5969 6.0625-7.8594 4.2505 0.9719 2.0776 8.4826 2.6953 12.799 0.1383 0.96613 0.11561 1.95 0.22461 2.9199 0.4564 4.0606 1.9054 8.0422 1.7969 12.127-0.1399 5.2683-3.584 10.242-3.1445 15.494 0.2608 3.1169 0.63974 7.2302 3.3691 8.7578 3.5872 2.0077 8.5275-0.25699 12.125-2.2461 4.4507-2.4608 7.3096-7.137 10.33-11.229 3.0881-4.1832 7.3481-8.2984 7.8594-13.473 0.9962-10.082-8.7164-18.68-9.8789-28.744-0.5957-5.1571 2.9079-10.478 1.5703-15.494-1.0919-4.0946-5.3514-6.6261-7.4102-10.33-2.2827-4.1067-2.2716-9.5097-5.3887-13.025-0.9116-1.0282-3.3628-0.6669-3.5938-2.0215-0.6866-4.026 4.1996-7.9453 8.084-9.207 2.2625-0.73494 5.6741 3.5718 6.9629 1.5723 1.8817-2.9194-6.1027-4.8404-6.2891-8.3086-0.094-1.7434 3.256-2.8369 2.6953-4.4902-1.1115-3.2778-6.6478-2.107-9.6562-3.8184-3.6179-2.058-5.8658-6.5375-9.8809-7.6348-1.7464-0.47727-4.021-0.5124-5.3887 0.67383-1.2895 1.1184 0.26233 4.3724-1.3476 4.9394-3.4882 1.2285-5.3417-5.8621-8.9824-6.5117-2.4496-0.43708-5.0087 3.2268-7.1855 2.0215-5.1184-2.8339-2.1297-11.711-4.9414-16.842-2.2437-4.0941-5.5039-7.7116-9.207-10.555-3.505-2.691-7.6208-4.7468-11.902-5.8398-7.6942-1.9642-16.054-2.7976-23.799-1.043-3.1622 0.71643-5.4533 3.7358-8.5859 4.5723-2.8371 0.7576-7.6363 2.9812-8.8047 0.28711-1.0417-2.4019 3.2392-4.3274 5.5508-5.5566 4.9457-2.6299 10.586-3.3224 16.498-3.1992 3.6046 0.0751 7.7919 2.072 10.383-0.22461 0.7922-0.7022 1.003-2.2424 0.44922-3.1445-1.1808-1.9237-3.2694-2.8762-5.6211-3.416zm15.746 3.0293c-0.61977-0.037-1.1792 0.0724-1.6016 0.50586-0.9726 0.998-0.51465 2.9752 0.18945 4.1777 0.998 1.7046 3.132 2.5879 5.0312 3.1309 3.0724 0.87832 6.5398-0.9657 9.5859 0 2.2508 0.71359 4.6558 2.0105 5.7891 4.082 0.684 1.2503-0.53459 3.0452 0.19141 4.2715 0.9619 1.6248 3.4263 1.6894 4.8398 2.9414 3.4066 3.0175 4.3599 8.7257 8.4473 10.727 4.1773 2.0449 9.3848-0.77934 13.953 0.0938 1.8005 0.34411 3.3371 1.5895 5.125 1.9941 3.7441 0.84722 9.2626 3.984 11.484 0.85351 1.6976-2.3918-1.5137-5.9212-3.5117-8.0684-3.5765-3.8436-9.544-4.4582-13.953-7.3086-4.3903-2.8383-7.4799-7.7482-12.338-9.6797-2.8933-1.1504-6.4287 0.34242-9.3027-0.85547-2.135-0.88989-3.1909-3.5442-5.3144-4.4609-4.738-2.0452-10.228-1.4512-15.377-1.8027-1.0063-0.0687-2.2053-0.53986-3.2383-0.60156zm88.143 89.688c-1.4547-0.0191-3.0898 0.46129-4.5078 0.61719-1.6935 0.18618-3.861-0.0891-4.9668 1.207-1.8064 2.1172-0.1799 5.583-0.6718 8.3223-0.3205 1.7845-1.3737 3.4262-1.4766 5.2363-0.1106 1.9462 0.217 3.9611 0.9395 5.7715 0.9131 2.2879 2.0392 4.8576 4.1621 6.1074 1.8497 1.089 4.5332 1.6257 6.4121 0.58789 1.5763-0.87069 0.8965-3.9008 2.4472-4.8164 1.0862-0.64137 2.8435 0.97255 3.7813 0.12891 2.1664-1.9488 0.6699-5.8071 0.625-8.7207-0.018-1.1657 0.071-2.394-0.3574-3.4785-0.5479-1.3888-2.0925-2.2077-2.7071-3.5684-0.9301-2.0592 0.3929-5.1966-1.3418-6.6445-0.657-0.54845-1.465-0.73856-2.3379-0.75z" fill="#808080" fill-opacity=".73428" stroke-width="0" style="paint-order:markers fill stroke"/>
			<path d="m918.71 467.56a114.96 114.96 0 0 0-114.96 114.96 114.96 114.96 0 0 0 93.959 112.78 114.96 114.96 0 0 1-2.5664-0.78711 114.96 114.96 0 0 1-65.756-148.69 114.96 114.96 0 0 1 128.96-71.197 114.96 114.96 0 0 0-39.633-7.0684z" fill="#333" stroke="#000" stroke-dashoffset=".805" stroke-linecap="round" stroke-linejoin="round" stroke-width="5" style="paint-order:markers fill stroke"/>
		</g>
	</g>
</svg>
