<?xml version="1.0" encoding="UTF-8"?>
<!-- Created with Inkscape (http://www.inkscape.org/) -->
<svg width="500" height="500" version="1.1" viewBox="0 0 166.67 166.67" xmlns="http://www.w3.org/2000/svg" xmlns:cc="http://creativecommons.org/ns#" xmlns:rdf="http://www.w3.org/1999/02/22-rdf-syntax-ns#">
	<g transform="translate(-148.58 -431.3)">
		<g transform="matrix(.70944 0 0 .70944 -1004.8 103.23)">
			<circle cx="1743.2" cy="579.89" r="114.96" fill="#ccc" stroke="#000" stroke-dashoffset=".805" stroke-linecap="round" stroke-linejoin="round" stroke-width="5" style="paint-order:markers fill stroke"/>
			<path d="m1714 611.25c-3.4997 0.15513-6.4654 2.7867-9.8711 3.6074-4.5246 1.0904-10.256-1.2386-13.858 1.709-1.084 0.8871-1.0693 2.6098-1.3281 3.9863-0.4683 2.4906 0.9393 5.4286-0.3809 7.5918-1.4473 2.3716-5.9355 1.7103-7.2128 4.1777-1.6065 3.1034-1.5872 8.0356 0.9492 10.439 1.2409 1.176 4.167-1.2266 5.125 0.18945 1.9962 2.9508-4.3631 6.581-3.6074 10.062 0.6929 3.1922 4.3099 4.9499 6.8339 7.0234 3.4988 2.8744 7.0101 8.5487 11.391 7.4023 2.9024-0.75953 1.5052-6.6054 4.1757-7.9726 3.5844-1.8352 8.0128 2.5111 11.959 1.709 4.2006-0.85381 8.4623-3.1972 11.01-6.6445 1.7056-2.308 0.022-6.3599 2.0879-8.3516 3.306-3.1866 10.172 0.33898 13.478-2.8477 2.2541-2.1727 4.204-6.6456 2.2773-9.1133-1.324-1.6958-4.4883 0.87638-6.4531 0-3.8057-1.6975-7-5.3596-8.3535-9.3008-1.1744-3.4196 3.2253-8.1757 0.7598-10.82-1.8985-2.0364-5.5912 0.36329-8.3516 0-3.637-0.47867-6.9662-3.0101-10.631-2.8477zm84.578 25.176c-2.3565 0.1166-4.3696 4.8918-7.127 5.5762-2.7133 0.6734-5.9059-2.1088-8.3535-0.75781-3.1713 1.7504-3.0255 6.6019-4.9355 9.6797-1.6216 2.613-5.9204 4.3571-5.5059 7.4043 0.3889 2.8595 3.9766 5.7186 6.834 5.3145 1.7043-0.24102 1.32-4.0562 3.0371-4.1758 2.5446-0.17723 2.7744 5.7168 5.3164 5.5059 2.4488-0.2032 1.9447-5.0446 4.1758-6.0742 2.7727-1.2796 6.0767 1.288 9.1113 0.94726 3.5197-0.39516 8.3669-0.30646 10.062-3.416 0.6245-1.1453 0.096-3.0166-0.9492-3.7969-2.3348-1.7426-6.7607 2.5257-8.7324 0.38086-1.6838-1.8316 2.2539-5.2858 0.9492-7.4043-0.5982-0.97131-2.6222-0.17243-3.2285-1.1387-0.3046-0.48535 0.1508-1.1374 0.1914-1.709 0.1436-2.0207 1.955-5.081 0.1894-6.0742-0.3537-0.19899-0.6985-0.27838-1.0351-0.26172z" fill="#adadad" fill-opacity=".7789" stroke-width="0" style="paint-order:markers fill stroke"/>
			<path d="m1729.5 470.54c-4.702 0.0673-9.3766 0.96558-14.365 1.9766-5.7655 1.1684-11.801 3.6208-17.344 6.2832-6.3271 3.0394-11.509 6.6954-17.973 10.973-4.0142 2.6563-3.6959 3.7331-6.6621 6.6992-3.3559 3.3558-6.1566 4.1884-8.7265 6.8457-1.9635 2.0302-3.4321 4.4913-5.0039 6.8379-1.7576 2.6238-3.6535 5.2005-4.9415 8.084-2.1419 4.795-3.006 10.064-4.5292 15.09-0.7501 2.4749-1.9127 4.8566-2.2696 7.418-0.2905 2.0853 0.1179 4.211 0.127 6.3164 0.01 1.845-0.038 3.6884-0.064 5.5332-0.063 4.4165-2.202 9.3004-0.2246 13.25 0.7441 1.4862 1.2351 3.0117 4.043 2.918 2.1409-0.0715 3.161-1.8688 4.9297-2.0059 3.2247-0.24984 6.9112 0.21573 9.4414 2.2305 1.5406 1.2267 2.6029 3.3315 2.6133 5.3008 0.013 2.4259-1.2127 5.101-3.1504 6.5605-1.8562 1.3981-5.1315-0.37443-6.8731 1.1641-3.5142 3.1043-4.7045 8.8328-4.041 13.475 0.4672 3.268 2.5722 6.5865 5.3887 8.3086 2.5037 1.5308 6.4431-0.90553 8.7578 0.89844 2.763 2.1533 0.7597 7.8161 3.5937 9.875 5.2718 3.83 13.128-0.49938 19.537 0.67773 3.4224 0.62859 6.4514 3.9684 9.8789 3.3691 6.1378-1.0732 12.371-5.8584 14.598-11.678 1.139-2.9767-3.1198-6.6453-1.5723-9.4316 1.8088-3.2568 8.3733-1.0955 10.33-4.2656 3.2327-5.237-5.3019-13.698-1.3476-18.414 5.6566-6.7461 17.607-1.1472 26.273-2.6953 5.6297-1.0056 11.049-2.9609 16.617-4.2656 2.4586-0.57611 5.9356-3.6208 7.4121-1.5723 2.3345 3.239-5.7457 6.3502-6.0645 10.33-0.2309 2.8821 1.244 5.9051 3.1446 8.084 2.533 2.9038 6.937 3.4203 10.105 5.6133 1.2944 0.89593 3.4205 1.4926 3.5997 3.0566 0.1233 1.0765-1.1076 1.9127-1.9375 2.6094-1.6571 1.391-4.6515 1.0764-5.8028 2.9082-1.387 2.2068-0.9681 5.3514-0.1269 7.8184 0.7907 2.319 3.5466 3.5265 4.584 5.7461 0.8866 1.8972 1.8812 4.1576 1.2558 6.1562-0.7115 2.2737-4.7583 2.5941-5.166 4.9414-0.6015 3.463 2.0534 7.136 4.7168 9.4297 2.565 2.2089 6.4408 4.2026 9.6562 3.1445 3.6699-1.2076 4.0881-6.6187 6.7364-9.4316 1.3863-1.4725 4.3556-1.8261 4.7148-3.8164 0.9417-5.2176-6.8094-8.5528-8.084-13.699-0.7567-3.0551-0.6369-6.4776 0.4492-9.4316 1.1418-3.1056 2.8389-8.5969 6.0645-7.8594 4.2505 0.9719 2.0757 8.4846 2.6934 12.801 0.1383 0.96613 0.1156 1.9481 0.2246 2.918 0.4564 4.0606 1.9053 8.0422 1.7968 12.127-0.1399 5.2683-3.584 10.242-3.1445 15.494 0.2608 3.1169 0.6398 7.2302 3.3692 8.7578 3.587 2.0077 8.5294-0.25502 12.127-2.2441 4.4507-2.4608 7.3096-7.137 10.33-11.229 1.1439-1.5496 2.4174-3.1068 3.6328-4.6953a114.96 114.96 0 0 0 4.2793-10.246c-0.01-9.4574-8.828-17.705-9.9336-27.277-0.5957-5.1571 2.9099-10.478 1.5723-15.494-1.0919-4.0946-5.3533-6.6261-7.4121-10.33-2.2827-4.1067-2.2716-9.5078-5.3887-13.023-0.9116-1.0282-3.3628-0.66691-3.5938-2.0215-0.6866-4.026 4.2016-7.9453 8.086-9.207 2.2625-0.73494 5.6721 3.5718 6.9609 1.5723 1.8817-2.9194-6.1027-4.8404-6.2891-8.3086-0.094-1.7434 3.2561-2.8388 2.6954-4.4922-1.1115-3.2778-6.6479-2.107-9.6563-3.8184-3.6179-2.058-5.8658-6.5375-9.8809-7.6348-1.7462-0.47727-4.0209-0.5124-5.3886 0.67383-1.2895 1.1184 0.2623 4.3744-1.3477 4.9414-3.4882 1.2285-5.3417-5.8641-8.9824-6.5137-2.4496-0.43706-5.0086 3.2268-7.1855 2.0215-5.1184-2.8339-2.1298-11.711-4.9415-16.842-2.2437-4.0941-5.5039-7.7116-9.207-10.555-3.505-2.691-7.6188-4.7448-11.9-5.8379-7.6942-1.9642-16.056-2.7996-23.801-1.0449-3.1622 0.71643-5.4533 3.7377-8.5859 4.5742-2.8371 0.7576-7.6363 2.9792-8.8047 0.28516-1.0417-2.4019 3.2392-4.3274 5.5508-5.5566 4.9457-2.6299 10.586-3.3224 16.498-3.1992 3.6046 0.0751 7.7939 2.072 10.385-0.22461 0.7922-0.7022 1.003-2.2404 0.4492-3.1426-2.3541-3.835-8.3128-3.8159-12.781-4.3477-1.5861-0.18877-3.1573-0.25875-4.7246-0.23632zm27.629 4.1953c-0.6198-0.037-1.1792 0.0744-1.6016 0.50781-0.9726 0.998-0.5146 2.9732 0.1895 4.1758 0.998 1.7046 3.132 2.5899 5.0312 3.1328 3.0724 0.8783 6.5399-0.9657 9.586 0 2.2508 0.71357 4.6577 2.0086 5.791 4.0801 0.684 1.2503-0.5366 3.0452 0.1894 4.2715 0.9619 1.6248 3.4264 1.6913 4.8399 2.9434 3.4066 3.0175 4.3598 8.7238 8.4472 10.725 4.1773 2.0448 9.3849-0.7774 13.953 0.0957 1.8005 0.34412 3.3371 1.5876 5.125 1.9922 3.7441 0.84723 9.2625 3.984 11.484 0.85351 0.1499-0.21121 0.2174-0.44078 0.295-0.66797a114.96 114.96 0 0 0-9.5918-11.055c-2.7512-1.1528-5.6983-2.057-8.1661-3.6524-4.3903-2.8383-7.4818-7.7501-12.34-9.6816-2.8933-1.1504-6.4268 0.34438-9.3008-0.85351-2.135-0.88989-3.1928-3.5442-5.3164-4.4609-4.738-2.0452-10.226-1.4531-15.375-1.8047-1.0063-0.0687-2.2073-0.53986-3.2402-0.60156zm86.152 89.9c-0.8622 0.14624-1.7219 0.31681-2.5176 0.4043-1.6935 0.18619-3.861-0.0872-4.9668 1.209-1.8064 2.1172-0.1799 5.583-0.6718 8.3223-0.3205 1.7845-1.3737 3.4242-1.4766 5.2344-0.1106 1.9462 0.217 3.9611 0.9395 5.7715 0.9131 2.2879 2.0392 4.8576 4.1621 6.1074 1.1676 0.68744 2.6581 1.0997 4.0781 1.0898a114.96 114.96 0 0 0 1.1973-16.416 114.96 114.96 0 0 0-0.7442-11.723z" fill="#808080" fill-opacity=".73428" stroke-width="0" style="paint-order:markers fill stroke"/>
			<path d="m1764 466.84a114.96 114.96 0 0 1 80.07 109.51 114.96 114.96 0 0 1-114.96 114.96 114.96 114.96 0 0 1-21.203-2.2246 114.96 114.96 0 0 0 35.346 5.7598 114.96 114.96 0 0 0 114.96-114.96 114.96 114.96 0 0 0-94.213-113.05z" fill="#333" stroke="#000" stroke-dashoffset=".805" stroke-linecap="round" stroke-linejoin="round" stroke-width="5" style="paint-order:markers fill stroke"/>
		</g>
	</g>
</svg>
