<?xml version="1.0" encoding="UTF-8"?>
<!-- Created with Inkscape (http://www.inkscape.org/) -->
<svg width="500" height="500" version="1.1" viewBox="0 0 166.67 166.67" xmlns="http://www.w3.org/2000/svg" xmlns:cc="http://creativecommons.org/ns#" xmlns:rdf="http://www.w3.org/1999/02/22-rdf-syntax-ns#">
	<g transform="translate(-148.58 -480.96)">
		<g transform="matrix(.70944 0 0 .70944 -493.11 -106.96)">
			<circle cx="1022" cy="946.17" r="114.96" fill="#ccc" stroke="#000" stroke-dashoffset=".805" stroke-linecap="round" stroke-linejoin="round" stroke-width="5" style="paint-order:markers fill stroke"/>
			<path d="m992.72 977.53c-3.4997 0.15513-6.4654 2.7867-9.8711 3.6074-4.5246 1.0904-10.256-1.2386-13.857 1.709-1.084 0.8871-1.0693 2.6098-1.3281 3.9863-0.4683 2.4906 0.93934 5.4286-0.38086 7.5918-1.4474 2.3716-5.9356 1.7103-7.2129 4.1777-1.6065 3.1034-1.5872 8.0357 0.94922 10.439 1.2409 1.1761 4.167-1.2267 5.125 0.1894 1.9962 2.9508-4.3631 6.5809-3.6074 10.062 0.6929 3.1922 4.31 4.9499 6.834 7.0235 3.4988 2.8744 7.01 8.5486 11.391 7.4023 2.9024-0.7596 1.5053-6.6054 4.1758-7.9727 3.5844-1.8352 8.0128 2.5111 11.959 1.709 4.2006-0.8538 8.4623-3.1972 11.01-6.6445 1.7056-2.3081 0.022-6.36 2.0879-8.3516 3.306-3.1867 10.173 0.3391 13.479-2.8476 2.2541-2.1727 4.204-6.6457 2.2773-9.1133-1.324-1.6958-4.4883 0.8763-6.4531 0-3.8057-1.6975-7-5.3596-8.3535-9.3008-1.1744-3.4196 3.2252-8.1757 0.7597-10.82-1.8985-2.0364-5.5911 0.36329-8.3515 0-3.637-0.47867-6.9662-3.0101-10.631-2.8477zm84.578 25.176c-2.3565 0.1166-4.3695 4.8918-7.1269 5.5762-2.7133 0.6734-5.9059-2.1088-8.3535-0.7578-3.1713 1.7503-3.0256 6.602-4.9356 9.6797-1.6216 2.613-5.9203 4.3571-5.5058 7.4043 0.3889 2.8596 3.9765 5.7185 6.8339 5.3144 1.7043-0.241 1.32-4.0562 3.0371-4.1758 1.5143-0.1054 2.2107 1.932 3.0606 3.5606a114.78 132.28 13.454 0 0 13.764-19.912c0.032-0.1195 0.064-0.2386 0.072-0.3535 0.1436-2.0207 1.9551-5.081 0.1895-6.0742-0.3537-0.199-0.6986-0.2785-1.0352-0.2618z" fill="#adadad" fill-opacity=".7789" stroke-width="0" style="paint-order:markers fill stroke"/>
			<path d="m1008.3 836.82c-4.702 0.0673-9.3765 0.96558-14.365 1.9766-5.7655 1.1684-11.801 3.6208-17.344 6.2832-6.3271 3.0394-11.509 6.6954-17.973 10.973-4.0142 2.6563-3.6959 3.7331-6.6621 6.6992-3.3559 3.3558-6.1567 4.1884-8.7266 6.8457-1.9635 2.0302-3.4321 4.4913-5.0039 6.8379-1.7576 2.6238-3.6534 5.2005-4.9414 8.084-2.1419 4.795-3.006 10.064-4.5293 15.09-0.7501 2.4749-1.9126 4.8566-2.2695 7.418-0.2905 2.0853 0.11786 4.211 0.12695 6.3164 0.01 1.845-0.0385 3.6884-0.0644 5.5332-0.063 4.4165-2.202 9.3004-0.22461 13.25 0.7441 1.4862 1.2351 3.0117 4.043 2.918 2.1409-0.0715 3.161-1.8688 4.9297-2.0059 3.2247-0.24984 6.9112 0.21573 9.4414 2.2305 1.5406 1.2267 2.6029 3.3315 2.6133 5.3008 0.013 2.4259-1.2127 5.101-3.1504 6.5605-1.8562 1.3981-5.1314-0.37443-6.873 1.1641-3.5142 3.1043-4.7045 8.8328-4.041 13.475 0.4672 3.268 2.5722 6.5865 5.3887 8.3086 2.5037 1.5308 6.4431-0.90553 8.7578 0.89844 2.763 2.1533 0.75975 7.8161 3.5938 9.875 5.2718 3.83 13.128-0.49938 19.537 0.67773 3.4224 0.62859 6.4513 3.9684 9.8789 3.3691 6.1378-1.0732 12.371-5.8584 14.598-11.678 1.139-2.9767-3.1198-6.6453-1.5723-9.4316 1.8088-3.2568 8.3733-1.0955 10.33-4.2656 3.2327-5.237-5.3019-13.698-1.3477-18.414 5.6566-6.7461 17.607-1.1472 26.274-2.6953 5.6296-1.0056 11.049-2.9609 16.617-4.2656 2.4586-0.57611 5.9357-3.6208 7.4122-1.5723 2.3344 3.239-5.7457 6.3502-6.0645 10.33-0.2309 2.8821 1.2439 5.9051 3.1446 8.084 2.5329 2.9038 6.9371 3.4203 10.105 5.6133 1.2944 0.89593 3.4204 1.4926 3.5996 3.0566 0.1233 1.0765-1.1076 1.9127-1.9375 2.6094-1.657 1.391-4.6514 1.0764-5.8027 2.9082-1.3869 2.2068-0.9682 5.3514-0.127 7.8184 0.7908 2.319 3.5466 3.5265 4.5841 5.7461 0.8867 1.8972 1.8813 4.1576 1.2559 6.1562-0.7115 2.2737-4.7584 2.5941-5.1661 4.9414-0.6015 3.463 2.0534 7.136 4.7168 9.4297 2.565 2.2089 6.4409 4.2027 9.6563 3.1446 3.6699-1.2076 4.088-6.6187 6.7363-9.4317 1.3863-1.4725 4.3557-1.8261 4.7149-3.8164 0.9417-5.2176-6.8094-8.5528-8.084-13.699-0.7567-3.0551-0.6369-6.4776 0.4492-9.4316 1.1418-3.1056 2.8389-8.5969 6.0645-7.8594 4.2504 0.97189 2.0756 8.4846 2.6933 12.801 0.1383 0.96613 0.1156 1.9481 0.2246 2.918 0.4564 4.0606 1.9054 8.0422 1.7969 12.127-0.1399 5.2683-3.584 10.242-3.1445 15.494 0 0.033 0.01 0.071 0.01 0.1035a114.78 132.28 13.454 0 0 11.434-31.221 114.78 132.28 13.454 0 0 3.0489-51.514c-0.4885-1.1416-1.0872-2.2156-1.9161-3.1504-0.9116-1.0282-3.3627-0.66691-3.5937-2.0215-0.4328-2.5379 1.3513-5.0296 3.7012-6.8438a114.78 132.28 13.454 0 0-6.0235-20.92c-1.732-1.7594-3.459-3.4957-5.7617-4.125-1.7463-0.47727-4.021-0.5124-5.3887 0.67383-1.2895 1.1184 0.2624 4.3744-1.3476 4.9414-3.4882 1.2285-5.3418-5.8641-8.9824-6.5137-2.4496-0.43707-5.0088 3.2267-7.1856 2.0215-5.1185-2.8339-2.1297-11.711-4.9414-16.842-2.2437-4.0941-5.5039-7.7116-9.207-10.555-3.5051-2.691-7.6188-4.7449-11.9-5.8379-7.6942-1.9642-16.056-2.7996-23.801-1.0449-3.1622 0.71643-5.4533 3.7377-8.5859 4.5742-2.8371 0.7576-7.6363 2.9792-8.8047 0.28516-1.0417-2.4019 3.2392-4.3274 5.5508-5.5566 4.9457-2.6299 10.586-3.3224 16.498-3.1992 3.6046 0.0751 7.7939 2.072 10.385-0.22461 0.7922-0.7022 1.003-2.2404 0.4492-3.1426-2.3541-3.835-8.3129-3.8159-12.781-4.3477-1.5861-0.18877-3.1573-0.25875-4.7246-0.23632zm27.629 4.1953c-0.6198-0.037-1.1791 0.0744-1.6015 0.50781-0.9726 0.998-0.5147 2.9732 0.1894 4.1758 0.998 1.7046 3.1321 2.5899 5.0313 3.1328 3.0724 0.87831 6.5398-0.96569 9.5859 0 2.2508 0.71358 4.6577 2.0086 5.791 4.0801 0.684 1.2503-0.5365 3.0452 0.1895 4.2715 0.9619 1.6248 3.4263 1.6913 4.8398 2.9434 3.4066 3.0175 4.3599 8.7238 8.4473 10.725 4.1099 2.0119 9.214-0.6697 13.728 0.0742a114.78 132.28 13.454 0 0-15.557-22.633c-2.2593-0.0576-4.6527 0.44856-6.7129-0.41015-2.135-0.88989-3.1928-3.5442-5.3164-4.4609-4.738-2.0452-10.226-1.4531-15.375-1.8047-1.0063-0.0687-2.2074-0.53986-3.2403-0.60156z" fill="#808080" fill-opacity=".73428" stroke-width="0" style="paint-order:markers fill stroke"/>
			<path d="m1053.9 835.76a114.78 132.28 13.454 0 1 39.66 134.63 114.78 132.28 13.454 0 1-66.338 90.363 114.96 114.96 0 0 0 109.69-114.59 114.96 114.96 0 0 0-83.014-110.41z" fill="#333" stroke="#000" stroke-dashoffset=".805" stroke-linecap="round" stroke-linejoin="round" stroke-width="5" style="paint-order:markers fill stroke"/>
		</g>
	</g>
</svg>
