<?xml version="1.0" encoding="UTF-8"?>
<!-- Created with Inkscape (http://www.inkscape.org/) -->
<svg width="500" height="500" version="1.1" viewBox="0 0 166.67 166.67" xmlns="http://www.w3.org/2000/svg" xmlns:cc="http://creativecommons.org/ns#" xmlns:rdf="http://www.w3.org/1999/02/22-rdf-syntax-ns#">
	<g transform="translate(-148.58 -480.96)">
		<g transform="matrix(.70944 0 0 .70944 -858.32 -104.47)">
			<circle cx="1536.7" cy="942.67" r="114.96" fill="#ccc" stroke="#000" stroke-dashoffset=".805" stroke-linecap="round" stroke-linejoin="round" stroke-width="5" style="paint-order:markers fill stroke"/>
			<path d="m1507.5 974.03c-3.4997 0.15513-6.4654 2.7867-9.8711 3.6074-4.5245 1.0904-10.256-1.2386-13.857 1.709-1.084 0.8871-1.0693 2.6098-1.3281 3.9863-0.4683 2.4906 0.9393 5.4286-0.3809 7.5918-1.4474 2.3716-5.9356 1.7103-7.2128 4.1777-1.6065 3.1034-1.5872 8.0357 0.9492 10.439 1.2409 1.1761 4.167-1.2267 5.125 0.1894 1.9962 2.9508-4.3632 6.5809-3.6075 10.062 0.6929 3.1922 4.31 4.9499 6.834 7.0235 3.4988 2.8744 7.0101 8.5486 11.391 7.4023 2.9024-0.7596 1.5052-6.6054 4.1757-7.9727 3.5844-1.8352 8.0128 2.5111 11.959 1.709 4.2006-0.8538 8.4623-3.1972 11.01-6.6445 1.7056-2.3081 0.022-6.36 2.0879-8.3516 3.306-3.1867 10.172 0.3391 13.478-2.8476 2.2541-2.1727 4.204-6.6457 2.2773-9.1133-1.324-1.6958-4.4883 0.8763-6.4531 0-3.8057-1.6975-7-5.3596-8.3535-9.3008-1.1744-3.4196 3.2253-8.1757 0.7598-10.82-1.8985-2.0364-5.5912 0.36329-8.3516 0-3.637-0.47867-6.9662-3.0101-10.631-2.8477z" fill="#adadad" fill-opacity=".7789" stroke-width="0" style="paint-order:markers fill stroke"/>
			<path d="m1523 833.32c-4.702 0.0673-9.3766 0.96558-14.365 1.9766-5.7655 1.1684-11.801 3.6208-17.344 6.2832-6.3271 3.0394-11.509 6.6954-17.973 10.973-4.0142 2.6563-3.6959 3.7331-6.6621 6.6992-3.3559 3.3558-6.1567 4.1884-8.7265 6.8457-1.9635 2.0302-3.4322 4.4913-5.004 6.8379-1.7576 2.6238-3.6534 5.2005-4.9414 8.084-2.1419 4.795-3.006 10.064-4.5293 15.09-0.7501 2.4749-1.9126 4.8566-2.2695 7.418-0.2905 2.0853 0.1179 4.211 0.127 6.3164 0.01 1.845-0.038 3.6884-0.064 5.5332-0.063 4.4165-2.202 9.3004-0.2246 13.25 0.7441 1.4862 1.2351 3.0117 4.043 2.918 2.1409-0.0715 3.161-1.8688 4.9297-2.0059 3.2247-0.24984 6.9112 0.21573 9.4414 2.2305 1.5406 1.2267 2.6028 3.3315 2.6132 5.3008 0.013 2.4259-1.2126 5.101-3.1503 6.5605-1.8562 1.3981-5.1315-0.37443-6.8731 1.1641-3.5142 3.1043-4.7045 8.8328-4.041 13.475 0.4672 3.268 2.5722 6.5865 5.3887 8.3086 2.5037 1.5308 6.4431-0.90553 8.7578 0.89844 2.763 2.1533 0.7597 7.8161 3.5937 9.875 5.2718 3.83 13.128-0.49938 19.537 0.67773 3.4224 0.62859 6.4513 3.9684 9.8789 3.3691 6.1378-1.0732 12.371-5.8584 14.598-11.678 1.139-2.9767-3.1198-6.6453-1.5723-9.4316 1.8088-3.2568 8.3733-1.0955 10.33-4.2656 3.2327-5.237-5.3019-13.698-1.3476-18.414 5.6565-6.7461 17.607-1.1472 26.273-2.6953 1.8657-0.33329 3.7045-0.7859 5.5371-1.2695a113.39 309.39 0 0 0-5.7871-88.621c-6.0347-1.0169-12.274-1.1889-18.16 0.14453-3.1622 0.71643-5.4533 3.7377-8.5859 4.5742-2.8371 0.7576-7.6363 2.9792-8.8047 0.28516-1.0417-2.4019 3.2392-4.3274 5.5508-5.5566 4.9457-2.6299 10.586-3.3224 16.498-3.1992 3.6046 0.0751 7.7939 2.072 10.385-0.22461 0.7922-0.7022 1.003-2.2404 0.4492-3.1426-2.3541-3.835-8.3128-3.8159-12.781-4.3477-1.5861-0.18877-3.1573-0.25875-4.7246-0.23632z" fill="#808080" fill-opacity=".73428" stroke-width="0" style="paint-order:markers fill stroke"/>
			<path d="m1541 827.81a113.39 309.39 0 0 1 8.1777 115.36 113.39 309.39 0 0 1-8.1016 114.16 114.96 114.96 0 0 0 110.67-114.66 114.96 114.96 0 0 0-110.75-114.86z" fill="#333" stroke="#000" stroke-dashoffset=".805" stroke-linecap="round" stroke-linejoin="round" stroke-width="5" style="paint-order:markers fill stroke"/>
		</g>
	</g>
</svg>
