<?xml version="1.0" encoding="UTF-8"?>
<!-- Created with Inkscape (http://www.inkscape.org/) -->
<svg width="500" height="499.84" version="1.1" viewBox="0 0 166.67 166.61" xmlns="http://www.w3.org/2000/svg" xmlns:cc="http://creativecommons.org/ns#" xmlns:rdf="http://www.w3.org/1999/02/22-rdf-syntax-ns#">
	<g transform="translate(-148.58 -480.96)">
		<g transform="matrix(.70921 0 0 .70921 -1004.4 153.1)">
			<circle cx="1743.2" cy="579.75" r="114.96" fill="#ccc" stroke="#000" stroke-dashoffset=".805" stroke-linecap="round" stroke-linejoin="round" stroke-width="5" style="paint-order:markers fill stroke"/>
			<path d="m1714 611.25c-3.4997 0.15513-6.4654 2.7867-9.8711 3.6074-4.5246 1.0904-10.256-1.2386-13.857 1.709-1.084 0.8871-1.0694 2.6098-1.3282 3.9863-0.4683 2.4906 0.9394 5.4286-0.3808 7.5918-1.4474 2.3716-5.9356 1.7103-7.2129 4.1777-1.6065 3.1034-1.5872 8.0356 0.9492 10.439 1.2409 1.176 4.167-1.2266 5.125 0.18945 1.9962 2.9508-4.3631 6.581-3.6074 10.062 0.6929 3.1922 4.31 4.9499 6.834 7.0234 3.4988 2.8744 7.01 8.5487 11.391 7.4023 2.9024-0.75952 1.5053-6.6054 4.1758-7.9726 3.5844-1.8352 8.0128 2.5111 11.959 1.709 4.2006-0.85381 8.4622-3.1972 11.01-6.6445 1.7056-2.308 0.022-6.3599 2.0879-8.3516 2.6809-2.5841 7.7013-0.75693 11.268-1.6719v-10.225c-0.7061 0.14165-1.3885 0.19264-1.9648-0.0645-3.8057-1.6975-7.0001-5.3596-8.3536-9.3008-1.1744-3.4196 3.2253-8.1757 0.7598-10.82-1.8985-2.0364-5.5912 0.36329-8.3516 0-3.637-0.47867-6.9661-3.0101-10.631-2.8477z" fill="#adadad" fill-opacity=".7789" stroke-width="0" style="paint-order:markers fill stroke"/>
			<path d="m1729.5 470.54c-4.702 0.0673-9.3765 0.96558-14.365 1.9766-5.7655 1.1684-11.801 3.6208-17.344 6.2832-6.3271 3.0394-11.509 6.6954-17.973 10.973-4.0142 2.6563-3.6959 3.7331-6.6621 6.6992-3.3559 3.3558-6.1567 4.1884-8.7266 6.8457-1.9635 2.0302-3.4321 4.4913-5.0039 6.8379-1.7576 2.6238-3.6534 5.2005-4.9414 8.084-2.1419 4.795-3.006 10.064-4.5293 15.09-0.7501 2.4749-1.9126 4.8566-2.2695 7.418-0.2905 2.0853 0.1178 4.211 0.1269 6.3164 0.01 1.845-0.038 3.6884-0.064 5.5332-0.063 4.4165-2.2021 9.3004-0.2247 13.25 0.7441 1.4862 1.2351 3.0117 4.043 2.918 2.1409-0.0715 3.161-1.8688 4.9297-2.0059 3.2247-0.24984 6.9112 0.21573 9.4414 2.2305 1.5406 1.2267 2.6029 3.3315 2.6133 5.3008 0.013 2.4259-1.2127 5.101-3.1504 6.5605-1.8562 1.3981-5.1315-0.37443-6.8731 1.1641-3.5141 3.1043-4.7045 8.8328-4.041 13.475 0.4672 3.268 2.5722 6.5865 5.3887 8.3086 2.5037 1.5308 6.4431-0.90553 8.7578 0.89844 2.763 2.1533 0.7598 7.8161 3.5938 9.875 5.2718 3.83 13.128-0.49938 19.537 0.67773 3.4224 0.62859 6.4513 3.9684 9.8789 3.3691 6.1378-1.0732 12.371-5.8584 14.598-11.678 1.139-2.9767-3.1197-6.6453-1.5722-9.4316 1.8088-3.2568 8.3733-1.0955 10.33-4.2656 3.2326-5.237-5.302-13.698-1.3477-18.414 4.1532-4.9531 11.698-3.257 18.846-2.6152v-90.727c-3.7077-0.14905-7.4112 0.0913-10.982 0.90039-3.1622 0.71643-5.4534 3.7377-8.586 4.5742-2.8371 0.7576-7.6363 2.9792-8.8046 0.28516-1.0417-2.4019 3.2391-4.3274 5.5507-5.5566 4.9457-2.6299 10.586-3.3224 16.498-3.1992 2.0555 0.0428 4.2932 0.69188 6.3242 0.83203v-7.2969c-2.6006-0.79772-5.6793-0.94149-8.2715-1.25-1.5861-0.18877-3.1573-0.25876-4.7246-0.23633z" fill="#808080" fill-opacity=".73428" stroke-width="0" style="paint-order:markers fill stroke"/>
			<path d="m1743.3 464.78a114.96 114.96 0 0 1 114.96 114.96 114.96 114.96 0 0 1-114.96 114.96 114.96 114.96 0 0 1-0.7812-0.0566v-229.85a114.96 114.96 0 0 1 0.7812-0.0195z" fill="#333" stroke="#000" stroke-dashoffset=".805" stroke-linecap="round" stroke-linejoin="round" stroke-width="5" style="paint-order:markers fill stroke"/>
		</g>
	</g>
</svg>
