<?xml version="1.0" encoding="UTF-8"?>
<!-- Created with Inkscape (http://www.inkscape.org/) -->
<svg width="500" height="500" version="1.1" viewBox="0 0 166.67 166.67" xmlns="http://www.w3.org/2000/svg" xmlns:cc="http://creativecommons.org/ns#" xmlns:rdf="http://www.w3.org/1999/02/22-rdf-syntax-ns#">
	<g transform="translate(-202.25 -498.3)">
		<g transform="matrix(.70944 0 0 .70944 -951.13 170.23)">
			<circle cx="1743.2" cy="579.89" r="114.96" fill="#ccc" stroke="#000" stroke-dashoffset=".805" stroke-linecap="round" stroke-linejoin="round" stroke-width="5" style="paint-order:markers fill stroke"/>
			<path d="m1729.5 470.54c-4.702 0.0673-9.3765 0.96558-14.365 1.9766-5.7655 1.1684-11.801 3.6208-17.344 6.2832-6.3271 3.0394-11.509 6.6954-17.973 10.973-4.0142 2.6563-3.696 3.7331-6.6622 6.6992-3.3559 3.3558-6.1566 4.1884-8.7265 6.8457-1.9635 2.0302-3.4321 4.4913-5.0039 6.8379-1.7576 2.6238-3.6534 5.2005-4.9414 8.084-2.1419 4.795-3.006 10.064-4.5293 15.09-0.7501 2.4749-1.9127 4.8566-2.2696 7.418-0.2905 2.0853 0.1179 4.211 0.127 6.3164 0.01 1.845-0.036 3.6884-0.062 5.5332-0.063 4.4165-2.202 9.3004-0.2246 13.25 0.7441 1.4862 1.2351 3.0117 4.043 2.918 2.1409-0.0715 3.1609-1.8688 4.9296-2.0059 3.2247-0.24984 6.9112 0.21573 9.4414 2.2305 1.5406 1.2267 2.6029 3.3315 2.6133 5.3008 0.013 2.4259-1.2127 5.101-3.1504 6.5605-1.8562 1.3981-5.1314-0.37443-6.873 1.1641-3.5142 3.1043-4.7045 8.8328-4.041 13.475 0.4672 3.268 2.5721 6.5865 5.3886 8.3086 2.5037 1.5308 6.4432-0.90553 8.7579 0.89844 2.763 2.1533 0.7597 7.8161 3.5937 9.875 5.2718 3.83 13.128-0.49938 19.537 0.67773 3.4224 0.62859 6.4513 3.9684 9.8789 3.3691 4.6415-0.81153 9.3299-3.7514 12.307-7.6504a160.13 114.52 84.689 0 1-4.5176-27.547 160.13 114.52 84.689 0 1 13.73-96.543c-0.08 0.0243-0.1538 0.0625-0.2344 0.084-2.8371 0.7576-7.6363 2.9792-8.8047 0.28516-1.0417-2.4019 3.2392-4.3274 5.5508-5.5566 2.1031-1.1184 4.3364-1.8711 6.6582-2.375a160.13 114.52 84.689 0 1 4.6875-8.752c-0.5072-0.0129-1.0136-0.0307-1.5196-0.0234zm-80.377 43.686a114.96 114.96 0 0 0-5.5586 8.875 114.96 114.96 0 0 1 5.5586-8.875zm-7.9628 13.277a114.96 114.96 0 0 0-4.0333 8.6641 114.96 114.96 0 0 1 4.0333-8.6641zm-6.1797 14.42a114.96 114.96 0 0 0-2.6661 8.2656 114.96 114.96 0 0 1 2.6661-8.2656zm-4.3047 15.799a114.96 114.96 0 0 0-1.3574 7.1328 114.96 114.96 0 0 1 1.3574-7.1328zm-1.3106 37.873a114.96 114.96 0 0 0 1.0293 5.1777 114.96 114.96 0 0 1-1.0293-5.1777zm3.2539 15.406a114.96 114.96 0 0 0 2.0157 5.9375 114.96 114.96 0 0 1-2.0157-5.9375zm5.3321 14.826a114.96 114.96 0 0 0 2.9414 5.9648 114.96 114.96 0 0 1-2.9414-5.9648zm7.3105 13.969a114.96 114.96 0 0 0 3.7852 5.6641 114.96 114.96 0 0 1-3.7852-5.6641zm9.168 12.854a114.96 114.96 0 0 0 4.5312 5.168 114.96 114.96 0 0 1-4.5312-5.168zm10.852 11.488a114.96 114.96 0 0 0 5.168 4.5312 114.96 114.96 0 0 1-5.168-4.5312zm12.358 9.9141a114.96 114.96 0 0 0 5.664 3.7852 114.96 114.96 0 0 1-5.664-3.7852zm13.668 8.1543a114.96 114.96 0 0 0 5.9649 2.9414 114.96 114.96 0 0 1-5.9649-2.9414zm14.854 6.2578a114.96 114.96 0 0 0 5.9375 2.0156 114.96 114.96 0 0 1-5.9375-2.0156zm16.166 4.2402a114.96 114.96 0 0 0 5.1777 1.0293 114.96 114.96 0 0 1-5.1777-1.0293z" fill="#808080" fill-opacity=".73428" stroke-width="0" style="paint-order:markers fill stroke"/>
			<path d="m1743.2 464.93a114.96 114.96 0 0 0-9.5313 0.68164 160.13 114.52 84.689 0 0-24.24 117.81 160.13 114.52 84.689 0 0 44.867 110.64 114.96 114.96 0 0 0 103.87-114.17 114.96 114.96 0 0 0-114.96-114.96zm-9.5313 0.68164a114.96 114.96 0 0 0-13.92 2.0312 114.96 114.96 0 0 1 13.92-2.0312zm-14.26 2.1055a114.96 114.96 0 0 0-68.205 43.721 114.96 114.96 0 0 1 68.205-43.721zm-70.291 46.508a114.96 114.96 0 0 0-5.5586 8.875 114.96 114.96 0 0 1 5.5586-8.875zm-7.9628 13.277a114.96 114.96 0 0 0-4.0333 8.6641 114.96 114.96 0 0 1 4.0333-8.6641zm-6.1797 14.42a114.96 114.96 0 0 0-2.6661 8.2656 114.96 114.96 0 0 1 2.6661-8.2656zm-4.3047 15.799a114.96 114.96 0 0 0-1.3574 7.1328 114.96 114.96 0 0 1 1.3574-7.1328zm-1.3106 37.873a114.96 114.96 0 0 0 1.0293 5.1777 114.96 114.96 0 0 1-1.0293-5.1777zm3.2539 15.406a114.96 114.96 0 0 0 2.0157 5.9375 114.96 114.96 0 0 1-2.0157-5.9375zm5.3321 14.826a114.96 114.96 0 0 0 2.9414 5.9648 114.96 114.96 0 0 1-2.9414-5.9648zm7.3105 13.969a114.96 114.96 0 0 0 3.7852 5.6641 114.96 114.96 0 0 1-3.7852-5.6641zm9.168 12.854a114.96 114.96 0 0 0 4.5312 5.168 114.96 114.96 0 0 1-4.5312-5.168zm10.852 11.488a114.96 114.96 0 0 0 5.168 4.5312 114.96 114.96 0 0 1-5.168-4.5312zm12.358 9.9141a114.96 114.96 0 0 0 5.664 3.7852 114.96 114.96 0 0 1-5.664-3.7852zm13.668 8.1543a114.96 114.96 0 0 0 5.9649 2.9414 114.96 114.96 0 0 1-5.9649-2.9414zm14.854 6.2578a114.96 114.96 0 0 0 5.9375 2.0156 114.96 114.96 0 0 1-5.9375-2.0156zm16.166 4.2402a114.96 114.96 0 0 0 5.1777 1.0293 114.96 114.96 0 0 1-5.1777-1.0293z" fill="#333" stroke="#000" stroke-dashoffset=".805" stroke-linecap="round" stroke-linejoin="round" stroke-width="5" style="paint-order:markers fill stroke"/>
		</g>
	</g>
</svg>
