<?xml version="1.0" encoding="UTF-8"?>
<!-- Created with Inkscape (http://www.inkscape.org/) -->
<svg width="500" height="500" version="1.1" viewBox="0 0 166.67 166.67" xmlns="http://www.w3.org/2000/svg" xmlns:cc="http://creativecommons.org/ns#" xmlns:rdf="http://www.w3.org/1999/02/22-rdf-syntax-ns#">
	<g transform="translate(-148.91 -505.96)">
		<g transform="matrix(.70944 0 0 .70944 -1004.5 177.9)">
			<circle cx="1743.2" cy="579.89" r="114.96" fill="#ccc" stroke="#000" stroke-dashoffset=".805" stroke-linecap="round" stroke-linejoin="round" stroke-width="5" style="paint-order:markers fill stroke"/>
			<path d="m1659.4 501.53a114.96 114.96 0 0 0-7.4023 8.8555 114.96 114.96 0 0 1 7.4023-8.8555zm-9.7715 12.02a114.96 114.96 0 0 0-5.709 8.9004 114.96 114.96 0 0 1 5.709-8.9004zm-8.1347 13.344a114.96 114.96 0 0 0-4.1973 8.8223 114.96 114.96 0 0 1 4.1973-8.8223zm-6.3262 14.533a114.96 114.96 0 0 0-2.7891 8.4726 114.96 114.96 0 0 1 2.7891-8.4726zm-4.4004 15.881a114.96 114.96 0 0 0-1.4414 7.4238 114.96 114.96 0 0 1 1.4414-7.4238zm-1.4512 37.6a114.96 114.96 0 0 0 1.2539 6.666 114.96 114.96 0 0 1-1.2539-6.666zm2.9942 14.664a114.96 114.96 0 0 0 2.4589 7.7207 114.96 114.96 0 0 1-2.4589-7.7207zm64.5 5.4473c-2.4486-0.0775-4.7812 0.077-6.5821 1.5508-1.084 0.8871-1.0693 2.6098-1.3281 3.9863-0.4683 2.4906 0.9393 5.4286-0.3809 7.5918-1.4473 2.3716-5.9355 1.7103-7.2128 4.1777-1.6065 3.1034-1.5872 8.0356 0.9492 10.439 1.2409 1.176 4.167-1.2266 5.125 0.18945 1.9962 2.9508-4.3631 6.581-3.6074 10.062 0.6929 3.1922 4.3099 4.9499 6.8339 7.0234 3.4988 2.8744 7.0101 8.5487 11.391 7.4023 2.9024-0.75953 1.5052-6.6054 4.1757-7.9726 2.2714-1.1629 4.8824 0.15183 7.4942 1.0703a114.54 158.04 0 0 1-12.482-45.385c-1.4431 0.0167-2.9264-0.0909-4.375-0.13672zm-59.684 8.5957a114.96 114.96 0 0 0 3.7109 8.0742 114.96 114.96 0 0 1-3.7109-8.0742zm6.4394 13.072a114.96 114.96 0 0 0 5.1192 8.2871 114.96 114.96 0 0 1-5.1192-8.2871zm48.039 45.682a114.96 114.96 0 0 0 11.879 5.0957 114.96 114.96 0 0 1-11.879-5.0957zm13.477 5.6914a114.96 114.96 0 0 0 12.203 3.5469 114.96 114.96 0 0 1-12.203-3.5469zm13.726 3.877a114.96 114.96 0 0 0 13.022 2.1055 114.96 114.96 0 0 1-13.022-2.1055z" fill="#adadad" fill-opacity=".7789" stroke-width="0" style="paint-order:markers fill stroke"/>
			<path d="m1729.5 470.54c-4.702 0.0673-9.3766 0.96558-14.365 1.9766-5.7655 1.1684-11.801 3.6208-17.344 6.2832-6.3271 3.0394-11.509 6.6954-17.973 10.973-4.0142 2.6563-3.6959 3.7331-6.6621 6.6992-3.3559 3.3558-6.1566 4.1884-8.7265 6.8457-1.9635 2.0302-3.4321 4.4913-5.0039 6.8379-1.7576 2.6238-3.6535 5.2005-4.9415 8.084-2.1419 4.795-3.006 10.064-4.5292 15.09-0.7501 2.4749-1.9127 4.8566-2.2696 7.418-0.2905 2.0853 0.1179 4.211 0.127 6.3164 0.01 1.845-0.038 3.6884-0.064 5.5332-0.063 4.4165-2.202 9.3004-0.2246 13.25 0.7441 1.4862 1.2351 3.0117 4.043 2.918 2.1409-0.0715 3.161-1.8688 4.9297-2.0059 3.2247-0.24984 6.9112 0.21573 9.4414 2.2305 1.5406 1.2267 2.6029 3.3315 2.6133 5.3008 0.013 2.4259-1.2127 5.101-3.1504 6.5605-1.8562 1.3981-5.1315-0.37443-6.8731 1.1641-3.5142 3.1043-4.7045 8.8328-4.041 13.475 0.4672 3.268 2.5722 6.5865 5.3887 8.3086 2.5037 1.5308 6.4431-0.90553 8.7578 0.89844 2.763 2.1533 0.7597 7.8161 3.5937 9.875 5.2718 3.83 13.128-0.49938 19.537 0.67773 3.4224 0.62859 6.4514 3.9684 9.8789 3.3691 0.011-2e-3 0.021-6e-3 0.031-8e-3a114.54 158.04 0 0 1-3.0078-35.715 114.54 158.04 0 0 1 23.971-95.844c-2.8614 0.81485-7.3806 2.808-8.5137 0.19531-1.0417-2.4019 3.2392-4.3274 5.5508-5.5566 2.3351-1.2417 4.8294-2.0411 7.4297-2.5371a114.54 158.04 0 0 1 6.0508-8.4668c-1.2231-0.10562-2.4411-0.16385-3.6543-0.14648zm-70.102 30.992a114.96 114.96 0 0 0-7.4023 8.8555 114.96 114.96 0 0 1 7.4023-8.8555zm-9.7715 12.02a114.96 114.96 0 0 0-5.709 8.9004 114.96 114.96 0 0 1 5.709-8.9004zm-8.1347 13.344a114.96 114.96 0 0 0-4.1973 8.8223 114.96 114.96 0 0 1 4.1973-8.8223zm-6.3262 14.533a114.96 114.96 0 0 0-2.7891 8.4726 114.96 114.96 0 0 1 2.7891-8.4726zm-4.4004 15.881a114.96 114.96 0 0 0-1.4414 7.4238 114.96 114.96 0 0 1 1.4414-7.4238zm-1.4512 37.6a114.96 114.96 0 0 0 1.2539 6.666 114.96 114.96 0 0 1-1.2539-6.666zm2.9942 14.664a114.96 114.96 0 0 0 2.4589 7.7207 114.96 114.96 0 0 1-2.4589-7.7207zm4.8164 14.043a114.96 114.96 0 0 0 3.7109 8.0742 114.96 114.96 0 0 1-3.7109-8.0742zm6.4394 13.072a114.96 114.96 0 0 0 5.1192 8.2871 114.96 114.96 0 0 1-5.1192-8.2871zm48.039 45.682a114.96 114.96 0 0 0 11.879 5.0957 114.96 114.96 0 0 1-11.879-5.0957zm13.477 5.6914a114.96 114.96 0 0 0 12.203 3.5469 114.96 114.96 0 0 1-12.203-3.5469zm13.726 3.877a114.96 114.96 0 0 0 13.022 2.1055 114.96 114.96 0 0 1-13.022-2.1055z" fill="#808080" fill-opacity=".73428" stroke-width="0" style="paint-order:markers fill stroke"/>
			<path d="m1743.2 464.93a114.96 114.96 0 0 0-6.2227 0.44531 114.54 158.04 0 0 0-38.316 117.52 114.54 158.04 0 0 0 33.168 111.15 114.96 114.96 0 0 0 11.371 0.8125 114.96 114.96 0 0 0 114.96-114.96 114.96 114.96 0 0 0-114.96-114.96zm-6.2305 0.44727a114.96 114.96 0 0 0-75.943 34.521 114.96 114.96 0 0 1 75.943-34.521zm-77.576 36.154a114.96 114.96 0 0 0-7.4023 8.8555 114.96 114.96 0 0 1 7.4023-8.8555zm-9.7715 12.02a114.96 114.96 0 0 0-5.709 8.9004 114.96 114.96 0 0 1 5.709-8.9004zm-8.1347 13.344a114.96 114.96 0 0 0-4.1973 8.8223 114.96 114.96 0 0 1 4.1973-8.8223zm-6.3262 14.533a114.96 114.96 0 0 0-2.7891 8.4726 114.96 114.96 0 0 1 2.7891-8.4726zm-4.4004 15.881a114.96 114.96 0 0 0-1.4414 7.4238 114.96 114.96 0 0 1 1.4414-7.4238zm-1.4512 37.6a114.96 114.96 0 0 0 1.2539 6.666 114.96 114.96 0 0 1-1.2539-6.666zm2.9942 14.664a114.96 114.96 0 0 0 2.4589 7.7207 114.96 114.96 0 0 1-2.4589-7.7207zm4.8164 14.043a114.96 114.96 0 0 0 3.7109 8.0742 114.96 114.96 0 0 1-3.7109-8.0742zm6.4394 13.072a114.96 114.96 0 0 0 5.1192 8.2871 114.96 114.96 0 0 1-5.1192-8.2871zm7.5879 11.588a114.96 114.96 0 0 0 40.027 33.863 114.96 114.96 0 0 1-40.027-33.863zm40.451 34.094a114.96 114.96 0 0 0 11.879 5.0957 114.96 114.96 0 0 1-11.879-5.0957zm13.477 5.6914a114.96 114.96 0 0 0 12.203 3.5469 114.96 114.96 0 0 1-12.203-3.5469zm13.726 3.877a114.96 114.96 0 0 0 13.022 2.1055 114.96 114.96 0 0 1-13.022-2.1055z" fill="#333" stroke="#000" stroke-dashoffset=".805" stroke-linecap="round" stroke-linejoin="round" stroke-width="5" style="paint-order:markers fill stroke"/>
		</g>
	</g>
</svg>
