<?xml version="1.0" encoding="UTF-8"?>
<!-- Created with Inkscape (http://www.inkscape.org/) -->
<svg width="500" height="500" version="1.1" viewBox="0 0 166.67 166.67" xmlns="http://www.w3.org/2000/svg" xmlns:cc="http://creativecommons.org/ns#" xmlns:rdf="http://www.w3.org/1999/02/22-rdf-syntax-ns#">
	<g transform="translate(-174.58 -560.3)">
		<g transform="matrix(.70944 0 0 .70944 -978.8 232.23)">
			<circle cx="1743.2" cy="579.89" r="114.96" fill="#ccc" stroke="#000" stroke-dashoffset=".805" stroke-linecap="round" stroke-linejoin="round" stroke-width="5" style="paint-order:markers fill stroke"/>
			<path d="m1712.6 469.19a114.96 114.96 0 0 0-8.8008 3.0039 114.96 114.96 0 0 1 8.8008-3.0039zm-14.799 5.2402a114.96 114.96 0 0 0-7.9902 3.9551 114.96 114.96 0 0 1 7.9902-3.9551zm-13.963 7.2148a114.96 114.96 0 0 0-7.2051 4.8281 114.96 114.96 0 0 1 7.2051-4.8281zm-12.85 9.0527a114.96 114.96 0 0 0-6.3711 5.5957 114.96 114.96 0 0 1 6.3711-5.5957zm-11.529 10.754a114.96 114.96 0 0 0-5.459 6.2344 114.96 114.96 0 0 1 5.459-6.2344zm-9.9688 12.258a114.96 114.96 0 0 0-4.4687 6.6914 114.96 114.96 0 0 1 4.4687-6.6914zm-8.2675 13.65a114.96 114.96 0 0 0-3.3907 6.8789 114.96 114.96 0 0 1 3.3907-6.8789zm-6.3516 14.82a114.96 114.96 0 0 0-2.3027 6.7832 114.96 114.96 0 0 1 2.3027-6.7832zm-4.3496 16.195a114.96 114.96 0 0 0-1.1738 5.8867 114.96 114.96 0 0 1 1.1738-5.8867zm-1.1914 36.898a114.96 114.96 0 0 0 1.3457 6.8359 114.96 114.96 0 0 1-1.3457-6.8359zm3.1269 15.021a114.96 114.96 0 0 0 2.6329 7.8867 114.96 114.96 0 0 1-2.6329-7.8867zm5.084 14.455a114.96 114.96 0 0 0 3.9102 8.0801 114.96 114.96 0 0 1-3.9102-8.0801zm47.098 5.5059c-1.3925 0.42207-2.7362 0.8851-3.3457 2.0625-1.6065 3.1034-1.5872 8.0356 0.9492 10.439 1.2409 1.176 4.167-1.2266 5.125 0.18945 1.9962 2.9508-4.3631 6.581-3.6074 10.062 0.6929 3.1922 4.31 4.9499 6.834 7.0234 3.4988 2.8744 7.01 8.5487 11.391 7.4023 1.4896-0.38982 1.8494-2.1182 2.2051-3.8945a130.71 114.8 79.664 0 1-19.551-33.285zm-40.199 8.0488a114.96 114.96 0 0 0 5.2226 7.9863 114.96 114.96 0 0 1-5.2226-7.9863zm8.5527 12.438a114.96 114.96 0 0 0 6.5645 7.6777 114.96 114.96 0 0 1-6.5645-7.6777zm9.959 11.07a114.96 114.96 0 0 0 8.0097 7.2422 114.96 114.96 0 0 1-8.0097-7.2422zm10.914 9.416a114.96 114.96 0 0 0 9.8106 6.8106 114.96 114.96 0 0 1-9.8106-6.8106z" fill="#adadad" fill-opacity=".7789" stroke-width="0" style="paint-order:markers fill stroke"/>
			<path d="m1712.6 469.19a114.96 114.96 0 0 0-8.8008 3.0039 114.96 114.96 0 0 1 8.8008-3.0039zm8.1153 2.2891c-1.84 0.31404-3.6788 0.64162-5.5918 1.0293-5.7655 1.1684-11.801 3.6208-17.344 6.2832-6.3271 3.0394-11.509 6.6954-17.973 10.973-4.0142 2.6563-3.696 3.7331-6.6622 6.6992-3.3559 3.3558-6.1566 4.1884-8.7265 6.8457-1.9635 2.0302-3.4321 4.4913-5.0039 6.8379-1.7576 2.6238-3.6534 5.2005-4.9414 8.084-2.1419 4.795-3.006 10.064-4.5293 15.09-0.7501 2.4749-1.9127 4.8566-2.2696 7.418-0.2905 2.0853 0.1179 4.211 0.127 6.3164 0.01 1.845-0.038 3.6884-0.064 5.5332-0.063 4.4165-2.202 9.3004-0.2246 13.25 0.7441 1.4862 1.2351 3.0117 4.043 2.918 2.1409-0.0715 3.161-1.8688 4.9297-2.0059 3.2247-0.24984 6.9112 0.21573 9.4414 2.2305 1.5406 1.2267 2.6029 3.3315 2.6133 5.3008 0.013 2.4259-1.2127 5.101-3.1504 6.5605-1.8562 1.3981-5.1315-0.37443-6.8731 1.1641-3.5142 3.1043-4.7045 8.8328-4.041 13.475 0.4672 3.268 2.5722 6.5865 5.3887 8.3086 2.5037 1.5308 6.4431-0.90553 8.7578 0.89844 2.763 2.1533 0.7598 7.8161 3.5938 9.875 2.0861 1.5156 4.5827 1.7379 7.2285 1.5449a130.71 114.8 79.664 0 1-3.9336-15.979 130.71 114.8 79.664 0 1 45.205-128.65zm-22.914 2.9512a114.96 114.96 0 0 0-7.9902 3.9551 114.96 114.96 0 0 1 7.9902-3.9551zm-13.963 7.2148a114.96 114.96 0 0 0-7.2051 4.8281 114.96 114.96 0 0 1 7.2051-4.8281zm-12.85 9.0527a114.96 114.96 0 0 0-6.3711 5.5957 114.96 114.96 0 0 1 6.3711-5.5957zm-11.529 10.754a114.96 114.96 0 0 0-5.459 6.2344 114.96 114.96 0 0 1 5.459-6.2344zm-9.9688 12.258a114.96 114.96 0 0 0-4.4687 6.6914 114.96 114.96 0 0 1 4.4687-6.6914zm-8.2675 13.65a114.96 114.96 0 0 0-3.3907 6.8789 114.96 114.96 0 0 1 3.3907-6.8789zm-6.3516 14.82a114.96 114.96 0 0 0-2.3027 6.7832 114.96 114.96 0 0 1 2.3027-6.7832zm-4.3496 16.195a114.96 114.96 0 0 0-1.1738 5.8867 114.96 114.96 0 0 1 1.1738-5.8867zm-1.1914 36.898a114.96 114.96 0 0 0 1.3457 6.8359 114.96 114.96 0 0 1-1.3457-6.8359zm3.1269 15.021a114.96 114.96 0 0 0 2.6329 7.8867 114.96 114.96 0 0 1-2.6329-7.8867zm5.084 14.455a114.96 114.96 0 0 0 3.9102 8.0801 114.96 114.96 0 0 1-3.9102-8.0801zm6.8985 13.555a114.96 114.96 0 0 0 5.2226 7.9863 114.96 114.96 0 0 1-5.2226-7.9863zm8.5527 12.438a114.96 114.96 0 0 0 6.5645 7.6777 114.96 114.96 0 0 1-6.5645-7.6777zm9.959 11.07a114.96 114.96 0 0 0 8.0097 7.2422 114.96 114.96 0 0 1-8.0097-7.2422zm10.914 9.416a114.96 114.96 0 0 0 9.8106 6.8106 114.96 114.96 0 0 1-9.8106-6.8106z" fill="#808080" fill-opacity=".73428" stroke-width="0" style="paint-order:markers fill stroke"/>
			<path d="m1743.2 464.93a114.96 114.96 0 0 0-15.23 1.0898 130.71 114.8 79.664 0 0-52.453 134.12 130.71 114.8 79.664 0 0 64.303 94.479 114.96 114.96 0 0 0 3.3809 0.24219 114.96 114.96 0 0 0 114.96-114.96 114.96 114.96 0 0 0-114.96-114.96zm-3.3809 229.68a114.96 114.96 0 0 1-55.182-16.047 114.96 114.96 0 0 0 55.182 16.047zm-11.85-228.59a114.96 114.96 0 0 0-9.9316 1.9941 114.96 114.96 0 0 1 9.9316-1.9941zm-15.363 3.1758a114.96 114.96 0 0 0-8.8008 3.0039 114.96 114.96 0 0 1 8.8008-3.0039zm-14.799 5.2402a114.96 114.96 0 0 0-7.9902 3.9551 114.96 114.96 0 0 1 7.9902-3.9551zm-13.963 7.2148a114.96 114.96 0 0 0-7.2051 4.8281 114.96 114.96 0 0 1 7.2051-4.8281zm-12.85 9.0527a114.96 114.96 0 0 0-6.3711 5.5957 114.96 114.96 0 0 1 6.3711-5.5957zm-11.529 10.754a114.96 114.96 0 0 0-5.459 6.2344 114.96 114.96 0 0 1 5.459-6.2344zm-9.9688 12.258a114.96 114.96 0 0 0-4.4687 6.6914 114.96 114.96 0 0 1 4.4687-6.6914zm-8.2675 13.65a114.96 114.96 0 0 0-3.3907 6.8789 114.96 114.96 0 0 1 3.3907-6.8789zm-6.3516 14.82a114.96 114.96 0 0 0-2.3027 6.7832 114.96 114.96 0 0 1 2.3027-6.7832zm-4.3496 16.195a114.96 114.96 0 0 0-1.1738 5.8867 114.96 114.96 0 0 1 1.1738-5.8867zm-1.1914 36.898a114.96 114.96 0 0 0 1.3457 6.8359 114.96 114.96 0 0 1-1.3457-6.8359zm3.1269 15.021a114.96 114.96 0 0 0 2.6329 7.8867 114.96 114.96 0 0 1-2.6329-7.8867zm5.084 14.455a114.96 114.96 0 0 0 3.9102 8.0801 114.96 114.96 0 0 1-3.9102-8.0801zm6.8985 13.555a114.96 114.96 0 0 0 5.2226 7.9863 114.96 114.96 0 0 1-5.2226-7.9863zm8.5527 12.438a114.96 114.96 0 0 0 6.5645 7.6777 114.96 114.96 0 0 1-6.5645-7.6777zm9.959 11.07a114.96 114.96 0 0 0 8.0097 7.2422 114.96 114.96 0 0 1-8.0097-7.2422zm10.914 9.416a114.96 114.96 0 0 0 9.8106 6.8106 114.96 114.96 0 0 1-9.8106-6.8106z" fill="#333" stroke="#000" stroke-dashoffset=".805" stroke-linecap="round" stroke-linejoin="round" stroke-width="5" style="paint-order:markers fill stroke"/>
		</g>
	</g>
</svg>
