<?xml version="1.0" encoding="UTF-8"?>
<!-- Created with Inkscape (http://www.inkscape.org/) -->
<svg width="500" height="500" version="1.1" viewBox="0 0 166.67 166.67" xmlns="http://www.w3.org/2000/svg" xmlns:cc="http://creativecommons.org/ns#" xmlns:rdf="http://www.w3.org/1999/02/22-rdf-syntax-ns#">
	<g transform="translate(-174.58 -560.3)">
		<g transform="matrix(.70944 0 0 .70944 -978.8 232.23)">
			<circle cx="1743.2" cy="579.89" r="114.96" fill="#ccc" stroke="#000" stroke-dashoffset=".805" stroke-linecap="round" stroke-linejoin="round" stroke-width="5" style="paint-order:markers fill stroke"/>
			<path d="m1696.7 474.85a114.96 114.96 0 0 0-6.6016 3.3848 114.96 114.96 0 0 1 6.6016-3.3848zm-13.812 7.3223a114.96 114.96 0 0 0-6.2188 4.2832 114.96 114.96 0 0 1 6.2188-4.2832zm-12.707 9.1406a114.96 114.96 0 0 0-5.6035 5.0332 114.96 114.96 0 0 1 5.6035-5.0332zm-11.383 10.814a114.96 114.96 0 0 0-4.8398 5.6328 114.96 114.96 0 0 1 4.8398-5.6328zm-9.8262 12.293a114.96 114.96 0 0 0-4.0019 6.0957 114.96 114.96 0 0 1 4.0019-6.0957zm-8.0878 13.58a114.96 114.96 0 0 0-3.0957 6.3789 114.96 114.96 0 0 1 3.0957-6.3789zm-6.2149 14.744a114.96 114.96 0 0 0-2.1133 6.3144 114.96 114.96 0 0 1 2.1133-6.3144zm-4.2402 16.094a114.96 114.96 0 0 0-1.0781 5.4941 114.96 114.96 0 0 1 1.0781-5.4941zm-1.1133 36.127a114.96 114.96 0 0 0 0.998 5.457 114.96 114.96 0 0 1-0.998-5.457zm3.0293 14.795a114.96 114.96 0 0 0 1.9492 6.2774 114.96 114.96 0 0 1-1.9492-6.2774zm4.9434 14.299a114.96 114.96 0 0 0 2.8339 6.332 114.96 114.96 0 0 1-2.8339-6.332zm6.7988 13.592a114.96 114.96 0 0 0 3.6328 6.041 114.96 114.96 0 0 1-3.6328-6.041zm8.6914 12.799a114.96 114.96 0 0 0 6.8418 8.0293 114.96 114.96 0 0 1-6.8418-8.0293zm14.08 15.268a114.96 114.96 0 0 0 6.2539 4.9492 114.96 114.96 0 0 1-6.2539-4.9492zm11.896 9.1738a114.96 114.96 0 0 0 7.0449 4.3106 114.96 114.96 0 0 1-7.0449-4.3106zm12.945 7.5332a114.96 114.96 0 0 0 7.6582 3.5039 114.96 114.96 0 0 1-7.6582-3.5039zm13.768 5.7812a114.96 114.96 0 0 0 8.17 2.6074 114.96 114.96 0 0 1-8.17-2.6074z" fill="#adadad" fill-opacity=".7789" stroke-width="0" style="paint-order:markers fill stroke"/>
			<path d="m1696.7 474.85a114.96 114.96 0 0 0-6.6016 3.3848 114.96 114.96 0 0 1 6.6016-3.3848zm-1.9395 5.5332c-5.0186 2.7066-9.5536 5.8177-14.947 9.3867-4.0141 2.6563-3.6959 3.7331-6.6621 6.6992-3.3559 3.3558-6.1566 4.1884-8.7265 6.8457-1.9635 2.0302-3.4321 4.4913-5.0039 6.8379-1.7576 2.6238-3.6534 5.2005-4.9414 8.084-2.1419 4.795-3.006 10.064-4.5293 15.09-0.7501 2.4749-1.9127 4.8566-2.2696 7.418-0.2905 2.0853 0.1179 4.211 0.127 6.3164 0.01 1.845-0.036 3.6884-0.062 5.5332-0.063 4.4165-2.202 9.3004-0.2246 13.25 0.661 1.3203 1.1319 2.6652 3.1953 2.8848a123.71 114.87 69.746 0 1 44.045-88.346zm-11.873 1.7891a114.96 114.96 0 0 0-6.2188 4.2832 114.96 114.96 0 0 1 6.2188-4.2832zm-12.707 9.1406a114.96 114.96 0 0 0-5.6035 5.0332 114.96 114.96 0 0 1 5.6035-5.0332zm-11.383 10.814a114.96 114.96 0 0 0-4.8398 5.6328 114.96 114.96 0 0 1 4.8398-5.6328zm-9.8262 12.293a114.96 114.96 0 0 0-4.0019 6.0957 114.96 114.96 0 0 1 4.0019-6.0957zm-8.0878 13.58a114.96 114.96 0 0 0-3.0957 6.3789 114.96 114.96 0 0 1 3.0957-6.3789zm-6.2149 14.744a114.96 114.96 0 0 0-2.1133 6.3144 114.96 114.96 0 0 1 2.1133-6.3144zm-4.2402 16.094a114.96 114.96 0 0 0-1.0781 5.4941 114.96 114.96 0 0 1 1.0781-5.4941zm-1.1133 36.127a114.96 114.96 0 0 0 0.998 5.457 114.96 114.96 0 0 1-0.998-5.457zm3.0293 14.795a114.96 114.96 0 0 0 1.9492 6.2774 114.96 114.96 0 0 1-1.9492-6.2774zm4.9434 14.299a114.96 114.96 0 0 0 2.8339 6.332 114.96 114.96 0 0 1-2.8339-6.332zm6.7988 13.592a114.96 114.96 0 0 0 3.6328 6.041 114.96 114.96 0 0 1-3.6328-6.041zm8.6914 12.799a114.96 114.96 0 0 0 6.8418 8.0293 114.96 114.96 0 0 1-6.8418-8.0293zm14.08 15.268a114.96 114.96 0 0 0 6.2539 4.9492 114.96 114.96 0 0 1-6.2539-4.9492zm11.896 9.1738a114.96 114.96 0 0 0 7.0449 4.3106 114.96 114.96 0 0 1-7.0449-4.3106zm12.945 7.5332a114.96 114.96 0 0 0 7.6582 3.5039 114.96 114.96 0 0 1-7.6582-3.5039zm13.768 5.7812a114.96 114.96 0 0 0 8.17 2.6074 114.96 114.96 0 0 1-8.17-2.6074z" fill="#808080" fill-opacity=".73428" stroke-width="0" style="paint-order:markers fill stroke"/>
			<path d="m1743.2 464.93a114.96 114.96 0 0 0-31.828 4.5371 123.71 114.87 69.746 0 0-51.049 155.07 123.71 114.87 69.746 0 0 68.102 69.262 114.96 114.96 0 0 0 14.775 1.0566 114.96 114.96 0 0 0 114.96-114.96 114.96 114.96 0 0 0-114.96-114.96zm-14.775 228.87a114.96 114.96 0 0 1-8.791-1.6816 114.96 114.96 0 0 0 8.791 1.6816zm-17.053-224.33a114.96 114.96 0 0 0-6.4687 2.3242 114.96 114.96 0 0 1 6.4687-2.3242zm-14.672 5.3848a114.96 114.96 0 0 0-6.6016 3.3848 114.96 114.96 0 0 1 6.6016-3.3848zm-13.812 7.3223a114.96 114.96 0 0 0-6.2188 4.2832 114.96 114.96 0 0 1 6.2188-4.2832zm-12.707 9.1406a114.96 114.96 0 0 0-5.6035 5.0332 114.96 114.96 0 0 1 5.6035-5.0332zm-11.383 10.814a114.96 114.96 0 0 0-4.8398 5.6328 114.96 114.96 0 0 1 4.8398-5.6328zm-9.8262 12.293a114.96 114.96 0 0 0-4.0019 6.0957 114.96 114.96 0 0 1 4.0019-6.0957zm-8.0878 13.58a114.96 114.96 0 0 0-3.0957 6.3789 114.96 114.96 0 0 1 3.0957-6.3789zm-6.2149 14.744a114.96 114.96 0 0 0-2.1133 6.3144 114.96 114.96 0 0 1 2.1133-6.3144zm-4.2402 16.094a114.96 114.96 0 0 0-1.0781 5.4941 114.96 114.96 0 0 1 1.0781-5.4941zm-1.1133 36.127a114.96 114.96 0 0 0 0.998 5.457 114.96 114.96 0 0 1-0.998-5.457zm3.0293 14.795a114.96 114.96 0 0 0 1.9492 6.2774 114.96 114.96 0 0 1-1.9492-6.2774zm4.9434 14.299a114.96 114.96 0 0 0 2.8339 6.332 114.96 114.96 0 0 1-2.8339-6.332zm6.7988 13.592a114.96 114.96 0 0 0 3.6328 6.041 114.96 114.96 0 0 1-3.6328-6.041zm8.6914 12.799a114.96 114.96 0 0 0 6.8418 8.0293 114.96 114.96 0 0 1-6.8418-8.0293zm14.08 15.268a114.96 114.96 0 0 0 6.2539 4.9492 114.96 114.96 0 0 1-6.2539-4.9492zm11.896 9.1738a114.96 114.96 0 0 0 7.0449 4.3106 114.96 114.96 0 0 1-7.0449-4.3106zm12.945 7.5332a114.96 114.96 0 0 0 7.6582 3.5039 114.96 114.96 0 0 1-7.6582-3.5039zm13.768 5.7812a114.96 114.96 0 0 0 8.17 2.6074 114.96 114.96 0 0 1-8.17-2.6074z" fill="#333" stroke="#000" stroke-dashoffset=".805" stroke-linecap="round" stroke-linejoin="round" stroke-width="5" style="paint-order:markers fill stroke"/>
		</g>
	</g>
</svg>
