<?xml version="1.0" encoding="UTF-8"?>
<!-- Created with Inkscape (http://www.inkscape.org/) -->
<svg width="500" height="500" version="1.1" viewBox="0 0 166.67 166.67" xmlns="http://www.w3.org/2000/svg" xmlns:cc="http://creativecommons.org/ns#" xmlns:rdf="http://www.w3.org/1999/02/22-rdf-syntax-ns#">
	<g transform="translate(-174.58 -560.3)">
		<g transform="matrix(.70944 0 0 .70944 -978.79 232.23)">
			<circle cx="1743.2" cy="579.89" r="114.96" fill="#ccc" stroke="#000" stroke-dashoffset=".805" stroke-linecap="round" stroke-linejoin="round" stroke-width="5" style="paint-order:markers fill stroke"/>
			<path d="m1727.5 466.05a114.96 114.96 0 0 0-5.0332 1.002 114.96 114.96 0 0 1 5.0332-1.002zm-15.412 3.2598a114.96 114.96 0 0 0-5.8418 1.9824 114.96 114.96 0 0 1 5.8418-1.9824zm14.848 1.3672c-3.844 0.2836-7.71 1.0077-11.787 1.834-5.7655 1.1684-11.801 3.6208-17.344 6.2832-6.3271 3.0394-11.509 6.6954-17.973 10.973-4.0142 2.6563-3.6959 3.7331-6.6621 6.6992-3.3559 3.3558-6.1567 4.1884-8.7266 6.8457-1.9635 2.0302-3.4321 4.4913-5.0039 6.8379-1.7576 2.6238-3.6534 5.2005-4.9414 8.084-2.1419 4.795-3.006 10.064-4.5293 15.09-0.7501 2.4749-1.9126 4.8566-2.2695 7.418-0.2905 2.0853 0.1178 4.211 0.1269 6.3164 0.01 1.845-0.038 3.6884-0.064 5.5332-0.051 3.5444-1.4058 7.3827-0.9297 10.805a114.96 114.96 0 0 1 80.104-92.719zm-29.674 3.9668a114.96 114.96 0 0 0-5.8868 2.9023 114.96 114.96 0 0 1 5.8868-2.9023zm-13.965 7.3125a114.96 114.96 0 0 0-5.6269 3.7598 114.96 114.96 0 0 1 5.6269-3.7598zm-12.848 9.1641a114.96 114.96 0 0 0-5.1407 4.5098 114.96 114.96 0 0 1 5.1407-4.5098zm-11.49 10.859a114.96 114.96 0 0 0-4.5078 5.1406 114.96 114.96 0 0 1 4.5078-5.1406zm-9.914 12.361a114.96 114.96 0 0 0-3.7657 5.6367 114.96 114.96 0 0 1 3.7657-5.6367zm-8.1543 13.676a114.96 114.96 0 0 0-2.9219 5.9238 114.96 114.96 0 0 1 2.9219-5.9238zm-6.2774 14.922a114.96 114.96 0 0 0-1.9726 5.8106 114.96 114.96 0 0 1 1.9726-5.8106zm-4.2363 16.207a114.96 114.96 0 0 0-1 5.0274 114.96 114.96 0 0 1 1-5.0274zm-1 36.447a114.96 114.96 0 0 0 1.0195 5.1309 114.96 114.96 0 0 1-1.0195-5.1309zm3.2598 15.42a114.96 114.96 0 0 0 1.9941 5.875 114.96 114.96 0 0 1-1.9941-5.875zm5.3281 14.816a114.96 114.96 0 0 0 2.9297 5.9394 114.96 114.96 0 0 1-2.9297-5.9394zm7.3144 13.971a114.96 114.96 0 0 0 3.7657 5.6367 114.96 114.96 0 0 1-3.7657-5.6367zm9.1719 12.857a114.96 114.96 0 0 0 4.5078 5.1406 114.96 114.96 0 0 1-4.5078-5.1406zm10.857 11.49a114.96 114.96 0 0 0 5.1407 4.5078 114.96 114.96 0 0 1-5.1407-4.5078zm12.361 9.9141a114.96 114.96 0 0 0 5.6367 3.7656 114.96 114.96 0 0 1-5.6367-3.7656zm13.668 8.1504a114.96 114.96 0 0 0 5.9395 2.9297 114.96 114.96 0 0 1-5.9395-2.9297zm14.881 6.2637a114.96 114.96 0 0 0 5.875 1.9941 114.96 114.96 0 0 1-5.875-1.9941zm16.164 4.2344a114.96 114.96 0 0 0 5.1308 1.0195 114.96 114.96 0 0 1-5.1308-1.0195z" fill="#808080" fill-opacity=".73428" stroke-width="0" style="paint-order:markers fill stroke"/>
			<path d="m1743.2 464.93a114.96 114.96 0 0 1 12.42 0.69727 114.96 114.96 0 0 0-12.42-0.69727zm12.42 0.69727a114.96 114.96 0 0 0-110.14 114.62 114.96 114.96 0 0 0 103.87 114.17 114.96 114.96 0 0 0 108.82-114.52 114.96 114.96 0 0 0-102.54-114.27 114.96 114.96 0 0 0-0.01 0zm-28.137 0.42773a114.96 114.96 0 0 0-5.0332 1.002 114.96 114.96 0 0 1 5.0332-1.002zm-15.412 3.2598a114.96 114.96 0 0 0-5.8418 1.9824 114.96 114.96 0 0 1 5.8418-1.9824zm-14.826 5.334a114.96 114.96 0 0 0-5.8868 2.9023 114.96 114.96 0 0 1 5.8868-2.9023zm-13.965 7.3125a114.96 114.96 0 0 0-5.6269 3.7598 114.96 114.96 0 0 1 5.6269-3.7598zm-12.848 9.1641a114.96 114.96 0 0 0-5.1407 4.5098 114.96 114.96 0 0 1 5.1407-4.5098zm-11.49 10.859a114.96 114.96 0 0 0-4.5078 5.1406 114.96 114.96 0 0 1 4.5078-5.1406zm-9.914 12.361a114.96 114.96 0 0 0-3.7657 5.6367 114.96 114.96 0 0 1 3.7657-5.6367zm-8.1543 13.676a114.96 114.96 0 0 0-2.9219 5.9238 114.96 114.96 0 0 1 2.9219-5.9238zm-6.2774 14.922a114.96 114.96 0 0 0-1.9726 5.8106 114.96 114.96 0 0 1 1.9726-5.8106zm-4.2363 16.207a114.96 114.96 0 0 0-1 5.0274 114.96 114.96 0 0 1 1-5.0274zm-1 36.447a114.96 114.96 0 0 0 1.0195 5.1309 114.96 114.96 0 0 1-1.0195-5.1309zm3.2598 15.42a114.96 114.96 0 0 0 1.9941 5.875 114.96 114.96 0 0 1-1.9941-5.875zm5.3281 14.816a114.96 114.96 0 0 0 2.9297 5.9394 114.96 114.96 0 0 1-2.9297-5.9394zm7.3144 13.971a114.96 114.96 0 0 0 3.7657 5.6367 114.96 114.96 0 0 1-3.7657-5.6367zm9.1719 12.857a114.96 114.96 0 0 0 4.5078 5.1406 114.96 114.96 0 0 1-4.5078-5.1406zm10.857 11.49a114.96 114.96 0 0 0 5.1407 4.5078 114.96 114.96 0 0 1-5.1407-4.5078zm12.361 9.9141a114.96 114.96 0 0 0 5.6367 3.7656 114.96 114.96 0 0 1-5.6367-3.7656zm13.668 8.1504a114.96 114.96 0 0 0 5.9395 2.9297 114.96 114.96 0 0 1-5.9395-2.9297zm14.881 6.2637a114.96 114.96 0 0 0 5.875 1.9941 114.96 114.96 0 0 1-5.875-1.9941zm16.164 4.2344a114.96 114.96 0 0 0 5.1308 1.0195 114.96 114.96 0 0 1-5.1308-1.0195z" fill="#333" stroke="#000" stroke-dashoffset=".805" stroke-linecap="round" stroke-linejoin="round" stroke-width="5" style="paint-order:markers fill stroke"/>
		</g>
	</g>
</svg>
