<?xml version="1.0" encoding="UTF-8"?>
<!-- Created with Inkscape (http://www.inkscape.org/) -->
<svg width="500" height="500" version="1.1" viewBox="0 0 166.67 166.67" xmlns="http://www.w3.org/2000/svg" xmlns:cc="http://creativecommons.org/ns#" xmlns:rdf="http://www.w3.org/1999/02/22-rdf-syntax-ns#">
	<g transform="translate(13.753 10.37)">
		<g transform="matrix(.70944 0 0 .70944 -214.4 -81.939)">
			<circle cx="400.29" cy="218.34" r="114.96" fill="#333" stroke="#000" stroke-dashoffset=".805" stroke-linecap="round" stroke-linejoin="round" stroke-width="5" style="paint-order:markers fill stroke"/>
			<path d="m400.29 103.38a114.96 114.96 0 0 0-13.557 0.96875 114.96 114.96 0 0 1 100.32 113.99 114.96 114.96 0 0 1-100.86 113.96 114.96 114.96 0 0 0 14.1 1.0078 114.96 114.96 0 0 0 114.96-114.96 114.96 114.96 0 0 0-114.96-114.96z" fill="#ccc" stroke="#000" stroke-dashoffset=".805" stroke-linecap="round" stroke-linejoin="round" stroke-width="5" style="paint-order:markers fill stroke"/>
			<path d="m425.98 114.02c14.2 7.4095 26.692 17.541 37.004 29.943 0.91863 0.44171 1.7983 0.92358 2.7832 1.1465 3.7441 0.84723 9.2626 3.9859 11.484 0.85547 1.6976-2.3918-1.5137-5.9212-3.5117-8.0684-3.5765-3.8436-9.544-4.4582-13.953-7.3086-4.3903-2.8383-7.4799-7.7501-12.338-9.6816-2.8933-1.1504-6.4288 0.34437-9.3027-0.85352-2.135-0.88989-3.1909-3.5442-5.3145-4.4609-2.2114-0.95456-4.4238-1.4029-6.8516-1.5723zm49.393 48.709c1.1256 2.0214 2.1899 4.0764 3.1914 6.1621 0.82425-1.1904 2.7675-2.1458 2.3281-3.4414-0.68929-2.0327-3.0851-2.3616-5.5195-2.7207zm5.082 10.307c0.781 1.8174 1.515 3.6546 2.2012 5.5098 0.77029 0.30618 1.4378 0.36326 1.8633-0.29688 1.2415-1.9262-1.79-3.4247-4.0644-5.2129zm21.902 29.84c-1.4548-0.0191-3.0899 0.46129-4.5078 0.61718-1.6935 0.18619-3.859-0.0891-4.9648 1.207-1.8064 2.1172-0.17998 5.583-0.67188 8.3223-0.3205 1.7845-1.3737 3.4242-1.4766 5.2344-0.1106 1.9461 0.21696 3.963 0.93945 5.7734 0.9131 2.2879 2.0392 4.8576 4.1621 6.1074 1.8497 1.089 4.5332 1.6257 6.4121 0.58789 1.5763-0.87069 0.89462-3.9008 2.4453-4.8164 1.0862-0.64137 2.8454 0.97255 3.7832 0.12891 2.1664-1.9488 0.6699-5.8071 0.625-8.7207-0.018-1.1657 0.0708-2.394-0.35742-3.4785-0.5479-1.3888-2.0924-2.2077-2.707-3.5684-0.9301-2.0592 0.39094-5.1966-1.3438-6.6445-0.65708-0.54846-1.465-0.73856-2.3379-0.75zm-14.152 34.492c-2.6926 16.192-9.0012 31.92-18.119 45.605 2.1796-0.55352 4.0274-1.7573 5.8652-2.7734 4.4507-2.4608 7.3096-7.137 10.33-11.229 3.0881-4.1832 7.3481-8.2984 7.8594-13.473 0.63301-6.4066-2.8615-12.166-5.9356-18.131z" fill="#808080" fill-opacity=".73428" stroke-width="0" style="paint-order:markers fill stroke"/>
			<path d="m465.78 290.66c-0.70814 0.0178-0.97809 0.4168-1.7658 0.68593-1.9581 2.5059-3.9982 4.9564-6.2647 7.2374 0.39411 0.0372 1.5166-0.28153 1.9036-0.32498 3.5197-0.39516 6.8844-0.26421 8.58-3.3738 0.6245-1.1453 0.096-3.0147-0.94922-3.7949-0.43778-0.32675-0.94908-0.44362-1.5039-0.42969z" fill="#adadad" fill-opacity=".35" stroke-width="0" style="paint-order:markers fill stroke"/>
		</g>
	</g>
</svg>
