<?xml version="1.0" encoding="UTF-8"?>
<!-- Created with Inkscape (http://www.inkscape.org/) -->
<svg width="500" height="500" version="1.1" viewBox="0 0 166.67 166.67" xmlns="http://www.w3.org/2000/svg" xmlns:cc="http://creativecommons.org/ns#" xmlns:rdf="http://www.w3.org/1999/02/22-rdf-syntax-ns#">
	<g transform="translate(-22.247 -20.296)">
		<g transform="matrix(.70944 0 0 .70944 -348.02 -50.739)">
			<circle cx="639.37" cy="217.59" r="114.96" fill="#333" stroke="#000" stroke-dashoffset=".805" stroke-linecap="round" stroke-linejoin="round" stroke-width="5" style="paint-order:markers fill stroke"/>
			<path d="m661.27 104.75a114.76 134.76 0 0 1 52.059 112.85 114.76 134.76 0 0 1-51.754 112.52 114.96 114.96 0 0 0 92.758-112.52 114.96 114.96 0 0 0-93.062-112.85z" fill="#ccc" stroke="#000" stroke-dashoffset=".805" stroke-linecap="round" stroke-linejoin="round" stroke-width="5" style="paint-order:markers fill stroke"/>
			<path d="m683.96 119.69c-0.29543-8e-3 -0.59341-6e-3 -0.89258 2e-3 -0.77182 0.02-1.5529 0.076-2.3242 0.0957a114.67 135.86 0 0 1 15.807 22.453c1.075-0.0806 2.1388-0.0756 3.168 0.12109 1.8005 0.34412 3.3371 1.5876 5.125 1.9922 3.7441 0.84723 9.2626 3.9859 11.484 0.85547 1.6976-2.3918-1.5137-5.9212-3.5117-8.0684-3.5765-3.8436-9.544-4.4582-13.953-7.3086-4.3903-2.8383-7.4799-7.7501-12.338-9.6816-0.81373-0.32353-1.6782-0.4373-2.5644-0.46093zm18.631 34.562a114.67 135.86 0 0 1 8.5703 24.953c1.5852-1.5007 3.6132-2.6926 5.4375-3.2852 2.2625-0.73494 5.6721 3.5718 6.9609 1.5723 1.8817-2.9194-6.1007-4.8404-6.2871-8.3086-0.094-1.7434 3.256-2.8388 2.6953-4.4922-1.1115-3.2778-6.6478-2.1051-9.6562-3.8164-2.9114-1.6561-4.9488-4.8551-7.7207-6.623zm10.568 34.332a114.67 135.86 0 0 1 2.6777 29.006 114.67 135.86 0 0 1-13.648 63.566c0.22259 0.19364 0.44806 0.38498 0.71289 0.53321 3.5872 2.0077 8.5275-0.25698 12.125-2.2461 4.4507-2.4608 7.3096-7.137 10.33-11.229 3.0881-4.1832 7.3481-8.2984 7.8594-13.473 0.9962-10.082-8.7184-18.68-9.8809-28.744-0.5957-5.1571 2.9098-10.48 1.5723-15.496-1.0919-4.0946-5.3514-6.6242-7.4102-10.328-1.9909-3.5818-2.2394-8.1483-4.3379-11.59zm28.275 13.535c-1.4548-0.0191-3.0918 0.45934-4.5098 0.61524-1.6935 0.18619-3.859-0.0872-4.9648 1.209-1.8064 2.1172-0.17997 5.583-0.67187 8.3223-0.3205 1.7845-1.3737 3.4242-1.4766 5.2344-0.1106 1.9462 0.21696 3.9611 0.93946 5.7715 0.9131 2.2879 2.0392 4.8576 4.1621 6.1074 1.8497 1.089 4.5332 1.6277 6.4121 0.58984 1.5763-0.87069 0.89462-3.9008 2.4453-4.8164 1.0862-0.64137 2.8454 0.97254 3.7832 0.1289 2.1664-1.9488 0.6699-5.8071 0.625-8.7207-0.018-1.1657 0.0708-2.394-0.35742-3.4785-0.5479-1.3888-2.0924-2.2077-2.707-3.5684-0.9301-2.0592 0.39095-5.1966-1.3438-6.6445-0.65708-0.54845-1.4631-0.73856-2.3359-0.75z" fill="#808080" fill-opacity=".73428" stroke-width="0" style="paint-order:markers fill stroke"/>
			<path d="m704.86 289.91c-2.3522 0.0591-5.4843 2.439-7.1192 0.91016a114.67 135.86 0 0 1-3.916 6.2598c1.1522 0.32686 2.3088 0.59829 3.4277 0.47266 3.5197-0.39516 8.365-0.3084 10.061-3.418 0.6245-1.1453 0.096-3.0147-0.94922-3.7949-0.43777-0.32675-0.94908-0.44363-1.5039-0.42969z" fill="#adadad" fill-opacity=".77698" stroke-width="0" style="paint-order:markers fill stroke"/>
		</g>
	</g>
</svg>
