<?xml version="1.0" encoding="UTF-8"?>
<!-- Created with Inkscape (http://www.inkscape.org/) -->
<svg width="500" height="500" version="1.1" viewBox="0 0 166.67 166.67" xmlns="http://www.w3.org/2000/svg" xmlns:cc="http://creativecommons.org/ns#" xmlns:rdf="http://www.w3.org/1999/02/22-rdf-syntax-ns#">
	<g transform="translate(-48.914 -186.96)">
		<g transform="matrix(.70944 0 0 .70944 -518.17 110.91)">
			<circle cx="916.81" cy="224.67" r="114.96" fill="#333" stroke="#000" stroke-dashoffset=".805" stroke-linecap="round" stroke-linejoin="round" stroke-width="5" style="paint-order:markers fill stroke"/>
			<path d="m934.52 111.1a114.58 153.08 0 0 1 37.77 113.57 114.58 153.08 0 0 1-38.107 113.57 114.96 114.96 0 0 0 97.586-113.57 114.96 114.96 0 0 0-97.248-113.57z" fill="#ccc" stroke="#000" stroke-dashoffset=".805" stroke-linecap="round" stroke-linejoin="round" stroke-width="5" style="paint-order:markers fill stroke"/>
			<g fill="#808080" stroke-width="0">
				<path d="m975.03 160.03c-0.95811 0.0798-1.8689 0.36782-2.5527 0.96093-1.2895 1.1184 0.26234 4.3744-1.3477 4.9414-2.7054 0.95279-4.4363-3.0726-6.7715-5.2422a114.67 153.84 0 0 1 10.416 63.979 114.67 153.84 0 0 1-0.58789 12.031c0.3789-0.1035 0.77773-0.12986 1.209-0.0312 4.2505 0.9719 2.0776 8.4846 2.6953 12.801 0.1383 0.96613 0.11561 1.9481 0.22461 2.918 0.4564 4.0606 1.9054 8.0422 1.7969 12.127-0.1399 5.2683-3.584 10.242-3.1445 15.494 0.2608 3.1169 0.63975 7.2302 3.3691 8.7578 3.5872 2.0077 8.5275-0.25697 12.125-2.2461 4.4507-2.4608 7.3096-7.135 10.33-11.227 3.0881-4.1832 7.3481-8.3003 7.8594-13.475 0.9962-10.082-8.7184-18.68-9.8809-28.744-0.5957-5.1571 2.9099-10.478 1.5723-15.494-1.0919-4.0946-5.3514-6.6261-7.4102-10.33-2.2827-4.1067-2.2716-9.5078-5.3887-13.023-0.9116-1.0282-3.3628-0.6669-3.5938-2.0215-0.68659-4.026 4.1996-7.9453 8.084-9.207 2.2625-0.73494 5.6722 3.5718 6.9609 1.5723 1.8817-2.9194-6.1007-4.8404-6.2871-8.3086-0.094-1.7434 3.256-2.8388 2.6953-4.4922-1.1115-3.2778-6.6478-2.107-9.6562-3.8184-3.6179-2.058-5.8658-6.5375-9.8809-7.6348-0.8732-0.23864-1.8778-0.36692-2.8359-0.28711zm-3.291 98.564a114.67 153.84 0 0 1-4.8301 21.521c2.4287-1.9531 3.08-6.2361 5.3438-8.6406 1.3863-1.4725 4.3556-1.8261 4.7148-3.8164 0.63057-3.4937-2.6181-6.1501-5.2285-9.0644z" fill-opacity=".73428" style="paint-order:markers fill stroke"/>
				<path d="m1022.6 216.59c-0.9301-2.0592 0.3925-5.1965-1.3422-6.6444-1.7522-1.4625-4.5771-0.38366-6.8458-0.13423-1.6935 0.18619-3.8606-0.0881-4.9664 1.2081-1.8064 2.1172-0.1793 5.583-0.6712 8.3222-0.3205 1.7845-1.3736 3.4248-1.4765 5.235-0.1106 1.9462 0.2171 3.9614 0.9396 5.7719 0.9131 2.2879 2.0383 4.8576 4.1612 6.1074 1.8497 1.089 4.5336 1.6263 6.4125 0.58844 1.5763-0.87069 0.8959-3.9011 2.4466-4.8167 1.0862-0.64137 2.8443 0.97252 3.7821 0.12888 2.1664-1.9488 0.67-5.8059 0.6251-8.7196-0.018-1.1657 0.071-2.3947-0.3572-3.4792-0.5479-1.3888-2.0932-2.2072-2.7078-3.5679z" fill-opacity=".61055" style="paint-order:markers fill stroke"/>
				<path d="m944.57 120.64a114.67 153.84 0 0 1 10.939 18.742c2.8151 3.1335 3.9254 8.1174 7.6914 9.9609 4.1773 2.0449 9.3848-0.77935 13.953 0.0937 1.8005 0.34412 3.3371 1.5895 5.125 1.9941 3.7441 0.84723 9.2626 3.984 11.484 0.85352 1.6976-2.3918-1.5137-5.9192-3.5117-8.0664-3.5765-3.8436-9.544-4.4582-13.953-7.3086-4.3903-2.8383-7.4799-7.7501-12.338-9.6816-2.8933-1.1504-6.4287 0.34437-9.3027-0.85352-2.135-0.88989-3.1909-3.5442-5.3145-4.4609-1.5252-0.65836-3.1289-1.0424-4.7734-1.2734z" fill-opacity=".61055" style="paint-order:markers fill stroke"/>
			</g>
			<path d="m972.13 281.2c-2.3564 0.11661-4.3715 4.8918-7.1289 5.5762-0.0529 0.0131-0.10693 0.0168-0.16016 0.0273a114.67 153.84 0 0 1-7.1836 18.297c1.2349 1.5882 1.8484 4.8033 3.7383 4.6465 2.4488-0.2032 1.9447-5.0466 4.1758-6.0762 2.7727-1.2796 6.0767 1.2899 9.1113 0.94922 3.5197-0.39516 8.365-0.30645 10.061-3.416 0.6245-1.1453 0.096-3.0166-0.94922-3.7969-2.3348-1.7426-6.7607 2.5238-8.7324 0.3789-1.6838-1.8316 2.2539-5.2839 0.94921-7.4023-0.59819-0.97131-2.6203-0.17242-3.2266-1.1387-0.3046-0.48535 0.14886-1.1374 0.18946-1.709 0.1436-2.0207 1.957-5.081 0.1914-6.0742-0.35374-0.19899-0.69852-0.27837-1.0352-0.26172z" fill="#adadad" fill-opacity=".78" stroke-width="0" style="paint-order:markers fill stroke"/>
		</g>
	</g>
</svg>
