<?xml version="1.0" encoding="UTF-8"?>
<!-- Created with Inkscape (http://www.inkscape.org/) -->
<svg width="500" height="500" version="1.1" viewBox="0 0 166.67 166.67" xmlns="http://www.w3.org/2000/svg" xmlns:cc="http://creativecommons.org/ns#" xmlns:rdf="http://www.w3.org/1999/02/22-rdf-syntax-ns#">
	<g transform="translate(-91.58 -242.96)">
		<g transform="matrix(.70944 0 0 .70944 -655.71 168.48)">
			<circle cx="1170.8" cy="222.45" r="114.96" fill="#333" stroke="#000" stroke-dashoffset=".805" stroke-linecap="round" stroke-linejoin="round" stroke-width="5" style="paint-order:markers fill stroke"/>
			<path d="m1178.4 107.77a114.5 162.22 0 0 1 33.518 114.68 114.5 162.22 0 0 1-33.35 114.41 114.96 114.96 0 0 0 107.21-114.41 114.96 114.96 0 0 0-107.38-114.68z" fill="#ccc" stroke="#000" stroke-dashoffset=".805" stroke-linecap="round" stroke-linejoin="round" stroke-width="5" style="paint-order:markers fill stroke"/>
			<path d="m1187.9 117.91c1.3328 2.4228 2.7193 4.8814 4.0254 7.3574 2.0023-0.2447 4.1285-0.75798 6.0019-0.16406 2.2508 0.71357 4.6558 2.0105 5.7891 4.082 0.684 1.2503-0.5366 3.0451 0.1894 4.2715 0.9619 1.6248 3.4283 1.6894 4.8418 2.9414 3.4066 3.0175 4.3599 8.7238 8.4473 10.725 4.1773 2.0448 9.3848-0.7774 13.953 0.0957 1.8005 0.34412 3.3371 1.5876 5.125 1.9922 3.7441 0.84723 9.2626 3.9859 11.484 0.85547 1.6976-2.3918-1.5137-5.9212-3.5117-8.0684-3.5765-3.8436-9.5441-4.4582-13.953-7.3086-4.3901-2.8383-7.4798-7.7501-12.338-9.6816-2.8933-1.1504-6.4288 0.34438-9.3028-0.85351-2.135-0.88989-3.1908-3.5442-5.3144-4.4609-4.7184-2.0367-10.308-1.4408-15.438-1.7832zm7.5371 14.562c12.336 26.712 19.023 57.976 19.033 89.975-0.083 17.556-2.0224 35.012-5.9824 51.633 0.486 0.52858 0.8558 1.0242 1.3652 1.4629 2.565 2.2089 6.4408 4.2026 9.6562 3.1445 3.6699-1.2076 4.09-6.6187 6.7383-9.4316 1.3863-1.4725 4.3557-1.8281 4.7149-3.8184 0.9417-5.2176-6.8094-8.5508-8.084-13.697-0.7567-3.0551-0.6369-6.4776 0.4492-9.4316 1.1418-3.1056 2.8369-8.5989 6.0625-7.8613 4.2505 0.97188 2.0776 8.4846 2.6953 12.801 0.1383 0.96613 0.1156 1.95 0.2246 2.9199 0.4564 4.0606 1.9054 8.0402 1.7969 12.125-0.1399 5.2683-3.584 10.244-3.1445 15.496 0.2608 3.1169 0.6397 7.2302 3.3691 8.7578 3.5872 2.0077 8.5275-0.25698 12.125-2.2461 4.4507-2.4608 7.3096-7.137 10.33-11.229 3.0881-4.1832 7.3481-8.2984 7.8594-13.473 0.9962-10.082-8.7184-18.68-9.8809-28.744-0.5957-5.1571 2.9099-10.478 1.5723-15.494-1.0919-4.0946-5.3514-6.6261-7.4102-10.33-2.2827-4.1067-2.2716-9.5097-5.3887-13.025-0.9116-1.0282-3.3627-0.66692-3.5937-2.0215-0.6866-4.026 4.1996-7.9453 8.084-9.207 2.2625-0.73494 5.6721 3.5718 6.9609 1.5723 1.8817-2.9194-6.1007-4.8404-6.2871-8.3086-0.094-1.7434 3.256-2.8369 2.6953-4.4902-1.1115-3.2778-6.6478-2.107-9.6562-3.8184-3.6179-2.058-5.8658-6.5375-9.8809-7.6348-1.7464-0.47727-4.021-0.51239-5.3887 0.67382-1.2895 1.1184 0.2624 4.3724-1.3476 4.9395-3.4882 1.2285-5.3417-5.8621-8.9824-6.5117-2.4496-0.43708-5.0106 3.2267-7.1875 2.0215-5.1184-2.8339-2.1278-11.713-4.9395-16.844-2.0903-3.8142-5.187-7.1582-8.5781-9.9043zm77.428 74.504c-1.4548-0.0191-3.0918 0.4613-4.5098 0.61719-1.6935 0.18619-3.859-0.0891-4.9648 1.207-1.8064 2.1172-0.18 5.583-0.6719 8.3223-0.3205 1.7845-1.3736 3.4242-1.4765 5.2344-0.1106 1.9462 0.2169 3.963 0.9394 5.7734 0.9131 2.2879 2.0392 4.8576 4.1621 6.1074 1.8497 1.089 4.5332 1.6257 6.4121 0.58789 1.5763-0.87069 0.8966-3.9008 2.4473-4.8164 1.0862-0.64137 2.8435 0.97254 3.7813 0.1289 2.1664-1.9488 0.6699-5.8071 0.625-8.7207-0.018-1.1657 0.071-2.394-0.3575-3.4785-0.5479-1.3888-2.0924-2.2077-2.707-3.5684-0.9301-2.0592 0.3929-5.1966-1.3418-6.6445-0.6571-0.54845-1.465-0.73856-2.3379-0.75z" fill="#808080" fill-opacity=".73428" stroke-width="0" style="paint-order:markers fill stroke"/>
			<path d="m1226.1 278.98c-2.3564 0.1166-4.3715 4.8918-7.1289 5.5762-2.7133 0.6734-5.9039-2.1107-8.3515-0.75977-3.1713 1.7504-3.0256 6.6039-4.9356 9.6816-1.0232 1.6487-3.1101 2.9509-4.4082 4.4531a114.57 163.61 0 0 1-1.0683 3.0938c0.4873 2.8104 3.9955 5.5691 6.8046 5.1719 1.7043-0.24102 1.3201-4.0562 3.0372-4.1758 2.5445-0.17723 2.7744 5.7148 5.3164 5.5039 2.4488-0.2032 1.9446-5.0446 4.1757-6.0742 2.7727-1.2796 6.0768 1.2899 9.1114 0.94922 3.5197-0.39516 8.3649-0.3084 10.06-3.418 0.6245-1.1453 0.096-3.0147-0.9492-3.7949-2.3348-1.7426-6.7607 2.5238-8.7324 0.3789-1.6838-1.8316 2.2539-5.2858 0.9492-7.4043-0.5982-0.97131-2.6203-0.17243-3.2266-1.1387-0.3046-0.48535 0.1489-1.1355 0.1895-1.707 0.1436-2.0207 1.957-5.0829 0.1914-6.0762-0.3537-0.19899-0.6985-0.27642-1.0352-0.25976z" fill="#adadad" fill-opacity=".78" stroke-width="0" style="paint-order:markers fill stroke"/>
		</g>
	</g>
</svg>
