<?xml version="1.0" encoding="UTF-8"?>
<!-- Created with Inkscape (http://www.inkscape.org/) -->
<svg width="500" height="496.17" version="1.1" viewBox="0 0 166.67 165.39" xmlns="http://www.w3.org/2000/svg" xmlns:cc="http://creativecommons.org/ns#" xmlns:rdf="http://www.w3.org/1999/02/22-rdf-syntax-ns#">
	<g transform="translate(-126.25 -292.63)">
		<g transform="matrix(.704 0 0 .704 -827.54 219.06)">
			<circle cx="1472.3" cy="221.96" r="114.96" fill="#333" stroke="#000" stroke-dashoffset=".805" stroke-linecap="round" stroke-linejoin="round" stroke-width="5" style="paint-order:markers fill stroke"/>
			<path d="m1483.1 107.51a113.95 235.93 0 0 1 14.369 114.58 113.95 235.93 0 0 1-14.4 114.32 114.96 114.96 0 0 0 106.01-114.32 114.96 114.96 0 0 0-105.98-114.58z" fill="#ccc" stroke="#000" stroke-dashoffset=".805" stroke-linecap="round" stroke-linejoin="round" stroke-width="5" style="paint-order:markers fill stroke"/>
			<path d="m1488 117.29c-0.035-2e-3 0.055 0.12807 0.02 0.12695 0.5764 2.309 1.0652 4.5646 1.5996 6.9648 0.6721 0.30041 1.2963 0.54156 1.9707 0.73437 3.0724 0.87832 6.5418-0.9657 9.5879 0 2.2508 0.71359 4.6557 2.0105 5.789 4.082 0.684 1.2503-0.5365 3.0452 0.1895 4.2715 0.9619 1.6248 3.4263 1.6894 4.8398 2.9414 3.4066 3.0175 4.3619 8.7257 8.4493 10.727 4.1773 2.0448 9.3828-0.7793 13.951 0.0937 1.8005 0.34412 3.3371 1.5895 5.125 1.9941 3.7441 0.84723 9.2646 3.984 11.486 0.85351 1.6976-2.3918-1.5138-5.9192-3.5118-8.0664-3.5765-3.8436-9.544-4.4582-13.953-7.3086-4.3903-2.8383-7.4818-7.7501-12.34-9.6816-2.8933-1.1504-6.4268 0.34242-9.3008-0.85547-2.135-0.88989-3.1909-3.5442-5.3145-4.4609-4.738-2.0452-10.228-1.4512-15.377-1.8027-1.0063-0.0687-2.178-0.55158-3.211-0.61328zm2.086 10.029a113.95 234.68 0 0 1 9.6172 82.18c1.9848-0.97417 4.0432-2.0916 5.0918-0.63671 1.8427 2.5567-2.7594 5.0403-4.9551 7.9277a113.95 234.68 0 0 1 0.059 5.6699 113.95 234.68 0 0 1-0.055 1.6894c0.5524 1.1357 1.2358 2.2149 2.0312 3.127 2.533 2.9038 6.9371 3.4203 10.106 5.6133 1.2944 0.89593 3.4224 1.4926 3.6016 3.0566 0.1233 1.0765-1.1096 1.9127-1.9395 2.6094-1.6571 1.3911-4.6514 1.0764-5.8027 2.9082-1.387 2.2068-0.9662 5.3514-0.125 7.8184 0.7907 2.319 3.5466 3.5265 4.584 5.7461 0.8868 1.8972 1.8793 4.1576 1.2539 6.1562-0.7115 2.2737-4.7564 2.5922-5.1641 4.9394-0.6015 3.4631 2.0515 7.138 4.7149 9.4316 2.565 2.2089 6.4408 4.2026 9.6562 3.1445 3.6699-1.2076 4.088-6.6187 6.7363-9.4316 1.3863-1.4725 4.3576-1.8281 4.7168-3.8184 0.9417-5.2176-6.8093-8.5508-8.0839-13.697-0.7567-3.0551-0.6369-6.4776 0.4492-9.4316 1.1418-3.1056 2.8369-8.5969 6.0625-7.8594 4.2505 0.9719 2.0776 8.4826 2.6953 12.799 0.1383 0.96613 0.1156 1.9501 0.2246 2.9199 0.4564 4.0606 1.9034 8.0422 1.7949 12.127-0.1399 5.2683-3.5821 10.242-3.1426 15.494 0.2608 3.1169 0.6378 7.2302 3.3672 8.7578 3.5872 2.0077 8.5295-0.25699 12.127-2.2461 4.4507-2.4608 7.3096-7.135 10.33-11.227 3.0881-4.1831 7.348-8.3003 7.8593-13.475 0.9962-10.082-8.7183-18.68-9.8808-28.744-0.5957-5.1571 2.9098-10.478 1.5722-15.494-1.0919-4.0946-5.3513-6.6261-7.4101-10.33-2.2827-4.1067-2.2735-9.5097-5.3906-13.025-0.9116-1.0282-3.3608-0.66495-3.5918-2.0195-0.6866-4.026 4.1997-7.9453 8.0839-9.207 2.2625-0.73494 5.6722 3.5698 6.961 1.5703 1.8817-2.9194-6.1007-4.8404-6.2871-8.3086-0.094-1.7434 3.254-2.8368 2.6933-4.4902-1.1115-3.2778-6.6459-2.107-9.6543-3.8184-3.6179-2.058-5.8657-6.5375-9.8808-7.6348-1.7464-0.47727-4.0229-0.5124-5.3906 0.67383-1.2895 1.1184 0.2623 4.3724-1.3477 4.9394-3.4882 1.2285-5.3417-5.8621-8.9824-6.5117-2.4496-0.43708-5.0087 3.2268-7.1856 2.0215-5.1184-2.8339-2.1277-11.711-4.9394-16.842-2.2437-4.0941-5.504-7.7116-9.2071-10.555-2.4129-1.8525-5.1262-3.3744-7.9726-4.5176zm86.027 79.67c-1.4548-0.0191-3.0898 0.46129-4.5078 0.61719-1.6935 0.18619-3.861-0.0891-4.9668 1.207-1.8064 2.1172-0.178 5.583-0.6699 8.3223-0.3205 1.7845-1.3737 3.4262-1.4766 5.2363-0.1106 1.9462 0.217 3.9611 0.9395 5.7715 0.9131 2.2879 2.0372 4.8576 4.1601 6.1074 1.8497 1.089 4.5352 1.6257 6.4141 0.58789 1.5763-0.87069 0.8946-3.9008 2.4453-4.8164 1.0862-0.64137 2.8454 0.97255 3.7832 0.12891 2.1664-1.9488 0.6699-5.8051 0.625-8.7188-0.018-1.1657 0.071-2.396-0.3574-3.4805-0.5479-1.3888-2.0944-2.2058-2.709-3.5664-0.9301-2.0592 0.3929-5.1966-1.3418-6.6445-0.6571-0.54845-1.465-0.74051-2.3379-0.75195z" fill="#808080" fill-opacity=".73428" stroke-width="0" style="paint-order:markers fill stroke"/>
			<path d="m1530.3 285.33c0.1436-2.0207 1.9554-5.0813 0.1898-6.0745-2.8299-1.5919-5.0114 4.5331-8.1627 5.3152-2.7133 0.6734-5.9049-2.1102-8.3525-0.75931-3.1713 1.7504-3.0255 6.6035-4.9355 9.6813-1.6216 2.613-5.9196 4.3561-5.5051 7.4033 0.3889 2.8595 3.9765 5.7193 6.8339 5.3152 1.7043-0.24102 1.3201-4.0566 3.0372-4.1762 2.5446-0.17723 2.7733 5.716 5.3153 5.505 2.4488-0.2032 1.9451-5.0449 4.1762-6.0745 2.7727-1.2796 6.0772 1.2898 9.1118 0.94915 3.5197-0.39516 8.3654-0.30736 10.061-3.4169 0.6245-1.1453 0.096-3.0163-0.9492-3.7966-2.3348-1.7426-6.7604 2.5245-8.7321 0.37966-1.6838-1.8316 2.2538-5.2849 0.9491-7.4033-0.5982-0.97131-2.6208-0.17273-3.2271-1.139-0.3046-0.48535 0.1493-1.1369 0.1899-1.7085z" fill="#adadad" fill-opacity=".78" stroke-width="0" style="paint-order:markers fill stroke"/>
		</g>
	</g>
</svg>
