<?xml version="1.0" encoding="UTF-8"?>
<!-- Created with Inkscape (http://www.inkscape.org/) -->
<svg width="500" height="500" version="1.1" viewBox="0 0 166.67 166.67" xmlns="http://www.w3.org/2000/svg" xmlns:cc="http://creativecommons.org/ns#" xmlns:rdf="http://www.w3.org/1999/02/22-rdf-syntax-ns#">
	<g transform="translate(-126.25 -317.63)">
		<g transform="matrix(.70944 0 0 .70944 93.851 -11.915)">
			<circle cx="163.13" cy="581.98" r="114.96" fill="#ccc" stroke="#000" stroke-dashoffset=".805" stroke-linecap="round" stroke-linejoin="round" stroke-width="5" style="paint-order:markers fill stroke"/>
			<path d="m133.88 613.34c-0.55298 0.0245-1.089 0.12659-1.6191 0.25781a114.09 210.26 3.7961 0 0 5.2441 49.736c0.18467-0.0162 0.37001-0.0312 0.55274-0.0684 4.2006-0.85381 8.4623-3.1972 11.01-6.6445 1.7056-2.308 0.0218-6.3599 2.0879-8.3516 3.306-3.1866 10.173 0.33899 13.479-2.8476 2.2541-2.1727 4.204-6.6456 2.2773-9.1133-1.324-1.6958-4.4903 0.87638-6.4551 0-3.8057-1.6975-6.9981-5.3596-8.3516-9.3008-1.1744-3.4196 3.2253-8.1757 0.75977-10.82-1.8985-2.0364-5.5931 0.36329-8.3535 0-3.637-0.47867-6.9661-3.0101-10.631-2.8476zm84.58 25.176c-2.3564 0.1166-4.3715 4.8918-7.1289 5.5762-2.7133 0.6734-5.904-2.1088-8.3516-0.75781-3.1713 1.7504-3.0256 6.6019-4.9355 9.6797-1.6216 2.613-5.9204 4.3571-5.5059 7.4043 0.3889 2.8595 3.9766 5.7186 6.834 5.3145 1.7043-0.24102 1.32-4.0562 3.0371-4.1758 2.5446-0.17723 2.7725 5.7168 5.3144 5.5059 2.4488-0.2032 1.9466-5.0466 4.1777-6.0762 2.7727-1.2796 6.0767 1.2899 9.1113 0.94922 3.5197-0.39516 8.3649-0.30645 10.061-3.416 0.6245-1.1453 0.096-3.0166-0.94922-3.7969-2.3348-1.7426-6.7607 2.5238-8.7324 0.37891-1.6838-1.8316 2.2539-5.2839 0.94922-7.4024-0.5982-0.97131-2.6203-0.17242-3.2266-1.1387-0.3046-0.48535 0.14885-1.1374 0.18945-1.709 0.1436-2.0207 1.955-5.081 0.18945-6.0742-0.35373-0.19899-0.69656-0.27838-1.0332-0.26172z" fill="#adadad" fill-opacity=".7789" stroke-width="0" style="paint-order:markers fill stroke"/>
			<path d="m154.4 472.88a114.09 210.26 3.7961 0 0-2.8828 7.791c1.5026-0.0996 3.0266-0.1338 4.5742-0.10156 3.6046 0.0751 7.7939 2.072 10.385-0.22461 0.79218-0.7022 1.003-2.2404 0.44921-3.1426-2.3117-3.7659-8.0864-3.8182-12.525-4.3223zm22.65 3.9336c-0.61977-0.037-1.1792 0.0744-1.6016 0.50781-0.9726 0.998-0.51464 2.9732 0.18945 4.1758 0.998 1.7046 3.1301 2.5899 5.0293 3.1328 3.0724 0.87832 6.5418-0.9657 9.5879 0 2.2508 0.71359 4.6558 2.0086 5.7891 4.0801 0.68399 1.2503-0.53655 3.0452 0.18945 4.2715 0.9619 1.6248 3.4283 1.6894 4.8418 2.9414 3.4066 3.0175 4.3599 8.7257 8.4473 10.727 4.1773 2.0449 9.3829-0.77935 13.951 0.0937 1.8005 0.34412 3.3391 1.5895 5.127 1.9941 3.7441 0.84723 9.2626 3.984 11.484 0.85352 1.6976-2.3918-1.5137-5.9192-3.5117-8.0664-3.5765-3.8436-9.544-4.4582-13.953-7.3086-4.3903-2.8383-7.4799-7.7501-12.338-9.6816-2.8933-1.1504-6.4287 0.34437-9.3027-0.85352-2.135-0.88989-3.1908-3.5442-5.3144-4.4609-4.738-2.0452-10.228-1.4531-15.377-1.8047-1.0063-0.0687-2.2053-0.53986-3.2383-0.60156zm-16.711 6.6934c-3.01 7e-3 -6.002 0.30099-8.9062 0.95898-0.50308 0.11398-0.97752 0.30116-1.4434 0.51367a114.09 210.26 3.7961 0 0-12.971 52.604 114.09 210.26 3.7961 0 0-4.6992 77.248c1.6764-1.7161 3.0285-3.6922 3.8398-5.8125 1.139-2.9767-3.1178-6.6453-1.5703-9.4316 1.8088-3.2568 8.3713-1.0955 10.328-4.2656 3.2327-5.237-5.3-13.698-1.3457-18.414 5.6566-6.7462 17.607-1.1472 26.273-2.6953 5.6297-1.0056 11.049-2.9609 16.617-4.2656 2.4586-0.57611 5.9337-3.6208 7.4102-1.5723 2.3345 3.239-5.7437 6.3502-6.0625 10.33-0.2309 2.8821 1.242 5.9051 3.1426 8.084 2.533 2.9038 6.9371 3.4203 10.105 5.6133 1.2944 0.89593 3.4224 1.4926 3.6016 3.0566 0.1233 1.0765-1.1096 1.9127-1.9394 2.6094-1.6571 1.3911-4.6495 1.0764-5.8008 2.9082-1.387 2.2068-0.96816 5.3514-0.12696 7.8184 0.7907 2.319 3.5466 3.5265 4.584 5.7461 0.8868 1.8972 1.8793 4.1576 1.2539 6.1562-0.7115 2.2737-4.7564 2.5922-5.1641 4.9394-0.6015 3.4631 2.0515 7.1379 4.7148 9.4316 2.565 2.2089 6.4409 4.2026 9.6562 3.1445 3.6699-1.2076 4.088-6.6187 6.7363-9.4316 1.3863-1.4725 4.3576-1.8281 4.7168-3.8184 0.9417-5.2176-6.8094-8.5508-8.084-13.697-0.75668-3.0551-0.63688-6.4776 0.44922-9.4316 1.1418-3.1056 2.8369-8.5969 6.0625-7.8594 4.2505 0.9719 2.0776 8.4826 2.6953 12.799 0.1383 0.96613 0.11562 1.95 0.2246 2.9199 0.4564 4.0606 1.9054 8.0422 1.7969 12.127-0.1399 5.2683-3.584 10.242-3.1445 15.494 0.2608 3.1169 0.63779 7.2302 3.3672 8.7578 3.5872 2.0077 8.5294-0.25698 12.127-2.2461 4.4507-2.4608 7.3096-7.135 10.33-11.227 3.0881-4.1831 7.3481-8.3003 7.8594-13.475 0.9962-10.082-8.7184-18.68-9.8809-28.744-0.5957-5.1571 2.9099-10.478 1.5723-15.494-1.0919-4.0946-5.3514-6.6261-7.4102-10.33-2.2827-4.1067-2.2716-9.5078-5.3887-13.023-0.9116-1.0282-3.3628-0.66691-3.5938-2.0215-0.6866-4.026 4.1996-7.9453 8.084-9.207 2.2625-0.73494 5.6721 3.5718 6.9609 1.5723 1.8817-2.9194-6.1007-4.8423-6.2871-8.3106-0.094-1.7434 3.256-2.8369 2.6953-4.4902-1.1115-3.2778-6.6479-2.1071-9.6562-3.8184-3.6179-2.058-5.8658-6.5375-9.8809-7.6348-1.7464-0.47727-4.0229-0.5124-5.3906 0.67383-1.2895 1.1184 0.26234 4.3744-1.3477 4.9414-3.4882 1.2285-5.3398-5.864-8.9805-6.5137-2.4496-0.43708-5.0106 3.2268-7.1875 2.0215-5.1184-2.8339-2.1278-11.711-4.9395-16.842-2.2437-4.0941-5.5039-7.7116-9.207-10.555-3.505-2.691-7.6208-4.7448-11.902-5.8379-4.8089-1.2276-9.8779-2.0153-14.895-2.0039zm104.85 82.994c-1.4548-0.0191-3.0899 0.46129-4.5078 0.61718-1.6935 0.18619-3.861-0.0872-4.9668 1.209-1.8064 2.1172-0.17802 5.583-0.66992 8.3223-0.3205 1.7845-1.3737 3.4242-1.4766 5.2344-0.1106 1.9462 0.21695 3.961 0.93945 5.7715 0.9131 2.2879 2.0373 4.8576 4.1602 6.1074 1.8497 1.089 4.5352 1.6257 6.4141 0.5879 1.5763-0.87069 0.89461-3.9008 2.4453-4.8164 1.0862-0.64137 2.8454 0.97254 3.7832 0.12891 2.1664-1.9488 0.6699-5.8051 0.625-8.7188-0.018-1.1657 0.0708-2.396-0.35742-3.4805-0.5479-1.3888-2.0924-2.2058-2.707-3.5664-0.9301-2.0592 0.39095-5.1966-1.3438-6.6445-0.65707-0.54845-1.465-0.74051-2.3379-0.75195z" fill="#808080" fill-opacity=".73428" stroke-width="0" style="paint-order:markers fill stroke"/>
			<path d="m156.4 467.49a114.96 114.96 0 0 0-108.23 114.48 114.96 114.96 0 0 0 97.029 113.45 114.09 210.26 3.7961 0 1-8.1719-157.84 114.09 210.26 3.7961 0 1 19.375-70.092z" fill="#333" stroke="#000" stroke-dashoffset=".805" stroke-linecap="round" stroke-linejoin="round" stroke-width="5" style="paint-order:markers fill stroke"/>
		</g>
	</g>
</svg>
