<svg xmlns="http://www.w3.org/2000/svg" width="32" height="24"><path style="fill:#229e45;fill-opacity:1;stroke:none" d="M0 0h32v24H0z"/><path style="stroke:none;fill-rule:evenodd;fill:#f8e509;fill-opacity:1" d="m16.07 21.8 15.075-9.784L15.98 2.199.855 12.035Zm0 0"/><path style="stroke:none;fill-rule:evenodd;fill:#2b49a3;fill-opacity:1" d="M22.64 12c0 3.516-2.855 6.363-6.378 6.363a6.37 6.37 0 1 1 .015-12.738A6.372 6.372 0 0 1 22.641 12Zm0 0"/><path style="stroke:none;fill-rule:evenodd;fill:#ffffef;fill-opacity:1" d="m14.164 15.816-.2-.117-.198.102.043-.227-.16-.168.226-.027.11-.2.093.212.223.039-.164.148m4.297 1.317-.196-.114-.199.098.04-.223-.153-.168.222-.023.106-.203.101.207.22.043-.169.152m-1.812-1.5-.168-.098-.176.09.04-.195-.142-.145.204-.02.09-.183.078.188.195.035-.149.133m4.348-.422-.168-.102-.176.09.04-.195-.133-.14.195-.02.09-.176.078.18.191.035-.144.133M16.52 13.25l-.2-.11-.199.098.04-.226-.157-.168.226-.024.106-.207.098.211.222.04-.172.16m-5.23-1.75-.2-.11-.199.102.051-.23-.168-.165.23-.027.102-.203.102.21.219.04-.164.156m.664 2.86-.2-.118-.203.102.047-.227-.16-.164.227-.031.101-.2.102.211.218.04-.164.156m6.602-3.367-.18-.098-.18.09.04-.2L18 9.95l.2-.023.097-.18.082.188.2.035-.15.136m-.335 1.915-.133-.079-.145.07.028-.16-.11-.117.16-.02.075-.14.066.153.149.023-.11.11m-7.11 2.519-.136-.074-.133.066.032-.152-.106-.11.149-.02.07-.136.066.14.149.032-.114.102m10.008.761-.11-.054-.109.05.024-.113-.082-.082.117-.016.063-.097.046.097.125.028-.093.074"/><path style="stroke:none;fill-rule:evenodd;fill:#ffffef;fill-opacity:1" d="m10.965 14.379-.137-.074-.133.066.032-.152-.106-.11.149-.02.07-.136.066.14.149.032-.114.102"/><path style="stroke:none;fill-rule:evenodd;fill:#ffffef;fill-opacity:1" d="m10.965 14.379-.137-.074-.133.066.032-.152-.106-.11.149-.02.07-.136.066.14.149.032-.114.102m2.114.148-.13-.07-.136.066.031-.152-.105-.11.148-.02.07-.136.067.14.148.028-.113.106m-.238.847L12.664 15l-.133.07.028-.148-.106-.117.152-.02.07-.137.063.141.153.031-.118.102m4.372-1.113-.13-.079-.14.07.031-.152-.101-.113.148-.015.07-.133.063.136.148.028-.109.105m-1.254.149-.137-.075-.132.07.027-.152-.098-.113.149-.015.07-.141.059.144.152.028-.11.105m-3.44-.293-.087-.047-.086.04.024-.094-.067-.07.094-.012.04-.086.042.09.094.015-.07.067m8.39 2.27-.129-.075-.136.07.03-.152-.105-.113.149-.02.07-.137.066.141.149.031-.113.098m-1.04.3-.113-.07-.113.063.023-.133-.082-.09.125-.015.059-.114.05.121.126.02-.098.09m.524.113-.102-.059-.105.051.02-.117-.08-.086.114-.012.055-.101.05.101.118.024-.086.082m1.453-1.14-.098-.052-.101.051.023-.117-.078-.086.113-.012.051-.101.051.105.105.02-.082.082m-1.937 2.09-.125-.07-.137.058.031-.14-.101-.098.152-.016.063-.125.062.129.149.023-.114.098m.028.707-.117-.066-.122.062.032-.14-.098-.098.137-.02.058-.125.055.13.137.023-.102.101m-.949-1.156-.094-.059-.101.051.02-.11-.075-.085.11-.012.05-.097.05.097.11.02-.082.082m-.886.113-.102-.059-.102.051.028-.11-.082-.085.117-.012.05-.097.048.097.105.02-.078.082m-1.52-1.23-.101-.055-.102.05.028-.117-.082-.078.113-.016.047-.101.05.101.11.024-.078.074m.183 2.852-.078-.043-.09.043.02-.102-.066-.066.093-.012.047-.086.04.09.097.016-.07.066m-2.313-4.332-.2-.113-.198.097.043-.222-.16-.164.226-.032.11-.199.093.207.223.043-.164.152"/><path style="stroke:none;fill-rule:evenodd;fill:#fff;fill-opacity:1" d="M22.219 14.29c.125-.321.222-.653.293-.99-3.39-2.976-7.168-4.5-11.938-4.187a6.393 6.393 0 0 0-.426 1.047 15.27 15.27 0 0 1 12.07 4.13Zm0 0"/><path style="stroke:none;fill-rule:nonzero;fill:#309e3a;fill-opacity:1" d="m20.7 12.621.116.063a.163.163 0 0 0-.015.113.133.133 0 0 0 .07.082c.035.027.07.043.098.035.031 0 .05-.016.066-.035a.079.079 0 0 0 .012-.043.466.466 0 0 0-.102-.14.39.39 0 0 1-.09-.15.186.186 0 0 1 .098-.222.174.174 0 0 1 .117-.008c.047.008.09.032.13.059.07.05.116.102.128.16a.203.203 0 0 1-.027.164l-.121-.074a.114.114 0 0 0 .011-.086.13.13 0 0 0-.062-.07.168.168 0 0 0-.09-.035.053.053 0 0 0-.043.027c-.012.016-.012.027-.008.05.008.02.032.06.082.11.051.05.078.094.102.125a.198.198 0 0 1-.016.207.213.213 0 0 1-.097.078.238.238 0 0 1-.118.016.415.415 0 0 1-.14-.067c-.074-.05-.121-.105-.137-.164a.284.284 0 0 1 .031-.203Zm-.579-.383.125.067a.177.177 0 0 0-.012.11.16.16 0 0 0 .07.081c.04.024.071.035.102.027.028 0 .047-.011.063-.039a.066.066 0 0 0 .011-.039c0-.015-.011-.035-.027-.05-.023-.032-.05-.06-.078-.09a.385.385 0 0 1-.102-.14.176.176 0 0 1 .024-.153.152.152 0 0 1 .078-.07.18.18 0 0 1 .11-.016c.046.008.09.023.128.05.078.047.121.098.137.153a.204.204 0 0 1-.02.172l-.125-.07c.016-.036.02-.06.008-.086a.13.13 0 0 0-.062-.07.144.144 0 0 0-.098-.028.043.043 0 0 0-.039.023.074.074 0 0 0-.004.051.34.34 0 0 0 .086.11c.05.05.082.09.098.12a.182.182 0 0 1 0 .208.2.2 0 0 1-.207.098.484.484 0 0 1-.149-.055.305.305 0 0 1-.136-.16.264.264 0 0 1 .02-.204Zm-.71-.187.362-.602.442.278-.059.097-.32-.199-.082.137.3.183-.066.102-.297-.188-.101.164.336.204-.063.097-.449-.273Zm-1.036-.852.055-.097.27.132-.126.25a.431.431 0 0 1-.312-.039.408.408 0 0 1-.153-.129.317.317 0 0 1-.05-.175.448.448 0 0 1 .18-.336.337.337 0 0 1 .183-.055c.047 0 .098.016.156.05a.281.281 0 0 1 .156.141.24.24 0 0 1 .016.172l-.137-.039a.122.122 0 0 0-.008-.097c-.015-.032-.039-.051-.082-.07a.175.175 0 0 0-.152-.016c-.05.015-.098.058-.133.129a.297.297 0 0 0-.035.19.18.18 0 0 0 .102.118.16.16 0 0 0 .086.027.346.346 0 0 0 .09 0l.039-.082Zm-4.512-1.113.102-.7.21.036.055.488.196-.45.21.028-.1.692-.138-.02.086-.547-.218.528-.137-.02-.055-.566-.078.55ZM13.16 10l.067-.7.511.052-.008.117-.375-.035-.015.152.351.035-.015.117-.352-.035-.015.192.39.035-.008.12ZM10.824 9.566c0-.078.016-.132.035-.18.02-.038.043-.07.07-.097a.275.275 0 0 1 .09-.059.522.522 0 0 1 .153-.027c.101 0 .183.043.25.102.062.078.09.175.078.273a.35.35 0 0 1-.102.266.323.323 0 0 1-.25.086.325.325 0 0 1-.238-.102.355.355 0 0 1-.086-.262Zm0 0"/><path style="stroke:none;fill-rule:nonzero;fill:#f7ffff;fill-opacity:1" d="M10.969 9.566c0 .075.015.133.05.18.036.04.083.063.141.063a.175.175 0 0 0 .14-.055c.036-.04.052-.098.055-.184 0-.082-.011-.14-.05-.18a.165.165 0 0 0-.133-.066.176.176 0 0 0-.14.063c-.044.039-.055.097-.063.18Zm0 0"/><path style="stroke:none;fill-rule:nonzero;fill:#309e3a;fill-opacity:1" d="m11.648 9.926.012-.7h.3c.075 0 .126.008.161.024a.145.145 0 0 1 .078.066.204.204 0 0 1-.02.243.222.222 0 0 1-.132.062l.074.059c.02.02.043.058.074.117l.086.137h-.172l-.097-.16-.07-.098a.1.1 0 0 0-.047-.031c-.024-.008-.047-.008-.07-.008h-.028v.289Zm0 0"/><path style="stroke:none;fill-rule:nonzero;fill:#fff;fill-opacity:1" d="M11.8 9.523h.098c.07 0 .118 0 .133-.007.016 0 .028-.016.04-.028a.096.096 0 0 0 .015-.047c0-.03-.008-.05-.02-.062a.082.082 0 0 0-.05-.027h-.102l-.113-.008Zm0 0"/><path style="stroke:none;fill-rule:nonzero;fill:#309e3a;fill-opacity:1" d="m12.45 9.262.26.011c.056 0 .099.008.13.016.039.016.074.04.101.07a.418.418 0 0 1 .074.285c0 .051-.007.102-.027.153a.288.288 0 0 1-.082.117.276.276 0 0 1-.101.05c-.032.013-.075.013-.125.013l-.266-.016Zm0 0"/><path style="stroke:none;fill-rule:nonzero;fill:#fff;fill-opacity:1" d="m12.586 9.387-.027.465h.191a.076.076 0 0 0 .059-.028.195.195 0 0 0 .043-.062.533.533 0 0 0 .02-.133l-.009-.125a.141.141 0 0 0-.097-.106.596.596 0 0 0-.118-.011Zm0 0"/><path style="stroke:none;fill-rule:nonzero;fill:#309e3a;fill-opacity:1" d="m15.879 10.512.168-.684.219.05.16.052a.17.17 0 0 1 .078.093.24.24 0 0 1 .012.141.276.276 0 0 1-.051.102.2.2 0 0 1-.149.07.79.79 0 0 1-.152-.027l-.086-.024-.058.262Zm0 0"/><path style="stroke:none;fill-rule:nonzero;fill:#fff;fill-opacity:1" d="m16.148 9.98-.039.192.075.02c.05.007.09.019.113.011a.091.091 0 0 0 .078-.074c0-.024 0-.043-.012-.063a.08.08 0 0 0-.047-.046l-.097-.024-.063-.016Zm0 0"/><path style="stroke:none;fill-rule:nonzero;fill:#309e3a;fill-opacity:1" d="m16.531 10.703.235-.656.273.098c.074.027.121.05.152.07.024.023.043.05.047.09a.238.238 0 0 1 0 .117.225.225 0 0 1-.09.11.258.258 0 0 1-.148.015.27.27 0 0 1 .05.078l.04.137.031.152-.156-.055-.05-.18a.708.708 0 0 0-.036-.12c-.004-.016-.016-.028-.027-.04-.012-.015-.032-.023-.067-.035l-.023-.007-.102.277Zm0 0"/><path style="stroke:none;fill-rule:nonzero;fill:#fff;fill-opacity:1" d="m16.8 10.371.095.035a.521.521 0 0 0 .125.035c.015 0 .03 0 .046-.015a.094.094 0 0 0 .028-.047.053.053 0 0 0 0-.059.091.091 0 0 0-.04-.047l-.1-.035-.099-.035-.058.168Zm0 0"/><path style="stroke:none;fill-rule:nonzero;fill:#309e3a;fill-opacity:1" d="M17.352 10.68a.417.417 0 0 1 .082-.16.395.395 0 0 1 .09-.075.243.243 0 0 1 .101-.035c.05 0 .102 0 .156.02.09.023.164.082.207.164.043.082.043.176.012.285a.37.37 0 0 1-.172.226.309.309 0 0 1-.258.02.331.331 0 0 1-.21-.164.37.37 0 0 1-.008-.281Zm0 0"/><path style="stroke:none;fill-rule:nonzero;fill:#fff;fill-opacity:1" d="M17.488 10.719c-.02.078-.023.14 0 .191.028.05.063.078.117.102.051.011.098.008.149-.024.05-.023.082-.078.105-.16.028-.074.028-.133 0-.183a.161.161 0 0 0-.109-.098.178.178 0 0 0-.148.012c-.051.03-.086.082-.114.16Zm0 0"/><path style="stroke:none;fill-rule:nonzero;fill:#309e3a;fill-opacity:1" d="m18.715 11.656.32-.62.266.136c.05.023.094.055.133.094a.119.119 0 0 1 .043.093c0 .04 0 .075-.024.11a.178.178 0 0 1-.098.101.308.308 0 0 1-.156-.011c.02.03.031.062.04.086.011.03.015.074.023.14l.008.16-.149-.074-.02-.187c-.003-.04-.007-.082-.015-.125a.083.083 0 0 0-.027-.047L19 11.477l-.023-.016-.137.258Zm0 0"/><path style="stroke:none;fill-rule:nonzero;fill:#fff;fill-opacity:1" d="m19.023 11.36.098.05c.059.031.098.05.113.05.016 0 .036 0 .051-.01.016-.005.024-.02.035-.04.008-.02.016-.039.008-.058a.087.087 0 0 0-.031-.051c-.031-.02-.063-.035-.094-.051l-.098-.05Zm0 0"/><path style="stroke:none;fill-rule:nonzero;fill:#309e3a;fill-opacity:1" d="M21.305 12.934a.436.436 0 0 1 .125-.13.375.375 0 0 1 .11-.042.258.258 0 0 1 .108 0c.051.008.098.027.141.058a.34.34 0 0 1 .152.22.428.428 0 0 1-.07.276.373.373 0 0 1-.226.164.32.32 0 0 1-.258-.054.322.322 0 0 1-.153-.223.373.373 0 0 1 .07-.27Zm0 0"/><path style="stroke:none;fill-rule:nonzero;fill:#fff;fill-opacity:1" d="M21.43 13.016c-.051.062-.067.125-.055.18a.18.18 0 0 0 .078.124c.05.035.102.043.152.032.051-.016.098-.051.145-.122.047-.07.066-.128.055-.18a.182.182 0 0 0-.078-.128.167.167 0 0 0-.153-.027c-.05.011-.097.05-.148.12Zm0 0"/><path style="stroke:none;fill-rule:nonzero;fill:#309e3a;fill-opacity:1" d="m15.09 10.227.113-.493.363.086-.015.078-.266-.058-.023.11.242.054-.02.086-.246-.059-.027.133.273.066-.02.079Zm0 0"/></svg>