<svg xmlns="http://www.w3.org/2000/svg" width="32" height="24"><defs><clipPath id="z"><path d="M9.95 5.75h1.5v1.5h-1.5Zm0 0"/></clipPath><clipPath id="a"><path d="M.8.55h1.5V2H.8Zm0 0"/></clipPath><clipPath id="c"><path d="M6.898.55h1.5V2h-1.5Zm0 0"/></clipPath><clipPath id="d"><path d="M9.95.55h1.5V2h-1.5Zm0 0"/></clipPath><clipPath id="e"><path d="M13 .55h1.5V2H13Zm0 0"/></clipPath><clipPath id="f"><path d="M16 .55h1.5V2H16Zm0 0"/></clipPath><clipPath id="g"><path d="M2.352 1.852h1.5v1.5h-1.5Zm0 0"/></clipPath><clipPath id="h"><path d="M5.398 1.852h1.5v1.5h-1.5Zm0 0"/></clipPath><clipPath id="i"><path d="M8.45 1.852h1.5v1.5h-1.5Zm0 0"/></clipPath><clipPath id="j"><path d="M11.45 1.852h1.5v1.5h-1.5Zm0 0"/></clipPath><clipPath id="k"><path d="M14.5 1.852H16v1.5h-1.5Zm0 0"/></clipPath><clipPath id="l"><path d="M.8 3.148h1.5v1.5H.8Zm0 0"/></clipPath><clipPath id="m"><path d="M3.852 3.148h1.5v1.5h-1.5Zm0 0"/></clipPath><clipPath id="n"><path d="M6.898 3.148h1.5v1.5h-1.5Zm0 0"/></clipPath><clipPath id="o"><path d="M9.95 3.148h1.5v1.5h-1.5Zm0 0"/></clipPath><clipPath id="p"><path d="M13 3.148h1.5v1.5H13Zm0 0"/></clipPath><clipPath id="q"><path d="M16 3.148h1.5v1.5H16Zm0 0"/></clipPath><clipPath id="r"><path d="M2.352 4.45h1.5v1.5h-1.5Zm0 0"/></clipPath><clipPath id="s"><path d="M5.398 4.45h1.5v1.5h-1.5Zm0 0"/></clipPath><clipPath id="t"><path d="M8.45 4.45h1.5v1.5h-1.5Zm0 0"/></clipPath><clipPath id="u"><path d="M11.45 4.45h1.5v1.5h-1.5Zm0 0"/></clipPath><clipPath id="v"><path d="M14.5 4.45H16v1.5h-1.5Zm0 0"/></clipPath><clipPath id="w"><path d="M.8 5.75h1.5v1.5H.8Zm0 0"/></clipPath><clipPath id="x"><path d="M3.852 5.75h1.5v1.5h-1.5Zm0 0"/></clipPath><clipPath id="y"><path d="M6.898 5.75h1.5v1.5h-1.5Zm0 0"/></clipPath><clipPath id="b"><path d="M3.852.55h1.5V2h-1.5Zm0 0"/></clipPath><clipPath id="A"><path d="M13 5.75h1.5v1.5H13Zm0 0"/></clipPath><clipPath id="B"><path d="M16 5.75h1.5v1.5H16Zm0 0"/></clipPath><clipPath id="C"><path d="M2.352 7.05h1.5v1.5h-1.5Zm0 0"/></clipPath><clipPath id="D"><path d="M5.398 7.05h1.5v1.5h-1.5Zm0 0"/></clipPath><clipPath id="E"><path d="M8.45 7.05h1.5v1.5h-1.5Zm0 0"/></clipPath><clipPath id="F"><path d="M11.45 7.05h1.5v1.5h-1.5Zm0 0"/></clipPath><clipPath id="G"><path d="M14.5 7.05H16v1.5h-1.5Zm0 0"/></clipPath><clipPath id="H"><path d="M.8 8.3h1.5v1.5H.8Zm0 0"/></clipPath><clipPath id="I"><path d="M3.852 8.3h1.5v1.5h-1.5Zm0 0"/></clipPath><clipPath id="J"><path d="M6.898 8.3h1.5v1.5h-1.5Zm0 0"/></clipPath><clipPath id="K"><path d="M9.95 8.3h1.5v1.5h-1.5Zm0 0"/></clipPath><clipPath id="L"><path d="M13 8.3h1.5v1.5H13Zm0 0"/></clipPath><clipPath id="M"><path d="M16 8.3h1.5v1.5H16Zm0 0"/></clipPath><clipPath id="N"><path d="M2.352 9.602h1.5V11h-1.5Zm0 0"/></clipPath><clipPath id="O"><path d="M5.398 9.602h1.5V11h-1.5Zm0 0"/></clipPath><clipPath id="P"><path d="M8.45 9.602h1.5V11h-1.5Zm0 0"/></clipPath><clipPath id="Q"><path d="M11.45 9.602h1.5V11h-1.5Zm0 0"/></clipPath><clipPath id="R"><path d="M14.5 9.602H16V11h-1.5Zm0 0"/></clipPath><clipPath id="S"><path d="M.8 10.898h1.5v1.5H.8Zm0 0"/></clipPath><clipPath id="T"><path d="M3.852 10.898h1.5v1.5h-1.5Zm0 0"/></clipPath><clipPath id="U"><path d="M6.898 10.898h1.5v1.5h-1.5Zm0 0"/></clipPath><clipPath id="V"><path d="M9.95 10.898h1.5v1.5h-1.5Zm0 0"/></clipPath><clipPath id="W"><path d="M13 10.898h1.5v1.5H13Zm0 0"/></clipPath><clipPath id="X"><path d="M16 10.898h1.5v1.5H16Zm0 0"/></clipPath></defs><path style="fill:#bd3d44;fill-opacity:1;stroke:none" d="M0 0h32v24H0z"/><path style="fill-rule:nonzero;fill:#000;fill-opacity:1;stroke-width:37;stroke-linecap:butt;stroke-linejoin:miter;stroke:#fff;stroke-opacity:1;stroke-miterlimit:4" d="M0 55.313h640M0 128.983h640M0 202.97h640M0 277.03h640M0 351.016h640M0 425h640" transform="scale(.05)"/><path style="stroke:none;fill-rule:nonzero;fill:#192f5d;fill-opacity:1" d="M0 0h18.238v12.926H0"/><g clip-path="url(#a)"><path style="stroke:none;fill-rule:nonzero;fill:#fff;fill-opacity:1" d="m1.5.55.45 1.348L.8 1.051h1.4l-1.15.847Zm0 0"/></g><g clip-path="url(#b)"><path style="stroke:none;fill-rule:nonzero;fill:#fff;fill-opacity:1" d="M4.55.55 5 1.899l-1.148-.847H5.25l-1.148.847Zm0 0"/></g><g clip-path="url(#c)"><path style="stroke:none;fill-rule:nonzero;fill:#fff;fill-opacity:1" d="m7.602.55.449 1.348-1.153-.847h1.403l-1.153.847Zm0 0"/></g><g clip-path="url(#d)"><path style="stroke:none;fill-rule:nonzero;fill:#fff;fill-opacity:1" d="m10.648.55.454 1.348-1.153-.847h1.403l-1.153.847Zm0 0"/></g><g clip-path="url(#e)"><path style="stroke:none;fill-rule:nonzero;fill:#fff;fill-opacity:1" d="m13.7.55.448 1.348L13 1.051h1.398l-1.148.847Zm0 0"/></g><g clip-path="url(#f)"><path style="stroke:none;fill-rule:nonzero;fill:#fff;fill-opacity:1" d="m16.7.55.448 1.348L16 1.051h1.398l-1.148.847Zm0 0"/></g><g clip-path="url(#g)"><path style="stroke:none;fill-rule:nonzero;fill:#fff;fill-opacity:1" d="m3.05 1.852.45 1.347-1.148-.847H3.75l-1.148.847Zm0 0"/></g><g clip-path="url(#h)"><path style="stroke:none;fill-rule:nonzero;fill:#fff;fill-opacity:1" d="m6.102 1.852.449 1.347-1.153-.847h1.403l-1.153.847Zm0 0"/></g><g clip-path="url(#i)"><path style="stroke:none;fill-rule:nonzero;fill:#fff;fill-opacity:1" d="m9.148 1.852.454 1.347-1.153-.847h1.403l-1.153.847Zm0 0"/></g><g clip-path="url(#j)"><path style="stroke:none;fill-rule:nonzero;fill:#fff;fill-opacity:1" d="m12.148 1.852.454 1.347-1.153-.847h1.403l-1.153.847Zm0 0"/></g><g clip-path="url(#k)"><path style="stroke:none;fill-rule:nonzero;fill:#fff;fill-opacity:1" d="m15.2 1.852.448 1.347-1.148-.847h1.398l-1.148.847Zm0 0"/></g><g clip-path="url(#l)"><path style="stroke:none;fill-rule:nonzero;fill:#fff;fill-opacity:1" d="M1.5 3.148 1.95 4.5.8 3.648h1.4L1.05 4.5Zm0 0"/></g><g clip-path="url(#m)"><path style="stroke:none;fill-rule:nonzero;fill:#fff;fill-opacity:1" d="M4.55 3.148 5 4.5l-1.148-.852H5.25L4.102 4.5Zm0 0"/></g><g clip-path="url(#n)"><path style="stroke:none;fill-rule:nonzero;fill:#fff;fill-opacity:1" d="M7.602 3.148 8.05 4.5l-1.153-.852h1.403L7.148 4.5Zm0 0"/></g><g clip-path="url(#o)"><path style="stroke:none;fill-rule:nonzero;fill:#fff;fill-opacity:1" d="m10.648 3.148.454 1.352-1.153-.852h1.403l-1.153.852Zm0 0"/></g><g clip-path="url(#p)"><path style="stroke:none;fill-rule:nonzero;fill:#fff;fill-opacity:1" d="m13.7 3.148.448 1.352L13 3.648h1.398L13.25 4.5Zm0 0"/></g><g clip-path="url(#q)"><path style="stroke:none;fill-rule:nonzero;fill:#fff;fill-opacity:1" d="m16.7 3.148.448 1.352L16 3.648h1.398L16.25 4.5Zm0 0"/></g><g clip-path="url(#r)"><path style="stroke:none;fill-rule:nonzero;fill:#fff;fill-opacity:1" d="M3.05 4.45 3.5 5.8l-1.148-.85H3.75l-1.148.85Zm0 0"/></g><g clip-path="url(#s)"><path style="stroke:none;fill-rule:nonzero;fill:#fff;fill-opacity:1" d="M6.102 4.45 6.55 5.8l-1.153-.85h1.403l-1.153.85Zm0 0"/></g><g clip-path="url(#t)"><path style="stroke:none;fill-rule:nonzero;fill:#fff;fill-opacity:1" d="m9.148 4.45.454 1.35-1.153-.85h1.403l-1.153.85Zm0 0"/></g><g clip-path="url(#u)"><path style="stroke:none;fill-rule:nonzero;fill:#fff;fill-opacity:1" d="m12.148 4.45.454 1.35-1.153-.85h1.403l-1.153.85Zm0 0"/></g><g clip-path="url(#v)"><path style="stroke:none;fill-rule:nonzero;fill:#fff;fill-opacity:1" d="m15.2 4.45.448 1.35-1.148-.85h1.398l-1.148.85Zm0 0"/></g><g clip-path="url(#w)"><path style="stroke:none;fill-rule:nonzero;fill:#fff;fill-opacity:1" d="m1.5 5.75.45 1.352L.8 6.25h1.4l-1.15.852Zm0 0"/></g><g clip-path="url(#x)"><path style="stroke:none;fill-rule:nonzero;fill:#fff;fill-opacity:1" d="M4.55 5.75 5 7.102 3.852 6.25H5.25l-1.148.852Zm0 0"/></g><g clip-path="url(#y)"><path style="stroke:none;fill-rule:nonzero;fill:#fff;fill-opacity:1" d="m7.602 5.75.449 1.352-1.153-.852h1.403l-1.153.852Zm0 0"/></g><g clip-path="url(#z)"><path style="stroke:none;fill-rule:nonzero;fill:#fff;fill-opacity:1" d="m10.648 5.75.454 1.352-1.153-.852h1.403l-1.153.852Zm0 0"/></g><g clip-path="url(#A)"><path style="stroke:none;fill-rule:nonzero;fill:#fff;fill-opacity:1" d="m13.7 5.75.448 1.352L13 6.25h1.398l-1.148.852Zm0 0"/></g><g clip-path="url(#B)"><path style="stroke:none;fill-rule:nonzero;fill:#fff;fill-opacity:1" d="m16.7 5.75.448 1.352L16 6.25h1.398l-1.148.852Zm0 0"/></g><g clip-path="url(#C)"><path style="stroke:none;fill-rule:nonzero;fill:#fff;fill-opacity:1" d="m3.05 7.05.45 1.348-1.148-.847H3.75l-1.148.847Zm0 0"/></g><g clip-path="url(#D)"><path style="stroke:none;fill-rule:nonzero;fill:#fff;fill-opacity:1" d="m6.102 7.05.449 1.348-1.153-.847h1.403l-1.153.847Zm0 0"/></g><g clip-path="url(#E)"><path style="stroke:none;fill-rule:nonzero;fill:#fff;fill-opacity:1" d="m9.148 7.05.454 1.348-1.153-.847h1.403l-1.153.847Zm0 0"/></g><g clip-path="url(#F)"><path style="stroke:none;fill-rule:nonzero;fill:#fff;fill-opacity:1" d="m12.148 7.05.454 1.348-1.153-.847h1.403l-1.153.847Zm0 0"/></g><g clip-path="url(#G)"><path style="stroke:none;fill-rule:nonzero;fill:#fff;fill-opacity:1" d="m15.2 7.05.448 1.348-1.148-.847h1.398l-1.148.847Zm0 0"/></g><g clip-path="url(#H)"><path style="stroke:none;fill-rule:nonzero;fill:#fff;fill-opacity:1" d="m1.5 8.3.45 1.348L.8 8.801h1.4l-1.15.847Zm0 0"/></g><g clip-path="url(#I)"><path style="stroke:none;fill-rule:nonzero;fill:#fff;fill-opacity:1" d="M4.55 8.3 5 9.649l-1.148-.847H5.25l-1.148.847Zm0 0"/></g><g clip-path="url(#J)"><path style="stroke:none;fill-rule:nonzero;fill:#fff;fill-opacity:1" d="m7.602 8.3.449 1.348-1.153-.847h1.403l-1.153.847Zm0 0"/></g><g clip-path="url(#K)"><path style="stroke:none;fill-rule:nonzero;fill:#fff;fill-opacity:1" d="m10.648 8.3.454 1.348-1.153-.847h1.403l-1.153.847Zm0 0"/></g><g clip-path="url(#L)"><path style="stroke:none;fill-rule:nonzero;fill:#fff;fill-opacity:1" d="m13.7 8.3.448 1.348L13 8.801h1.398l-1.148.847Zm0 0"/></g><g clip-path="url(#M)"><path style="stroke:none;fill-rule:nonzero;fill:#fff;fill-opacity:1" d="m16.7 8.3.448 1.348L16 8.801h1.398l-1.148.847Zm0 0"/></g><g clip-path="url(#N)"><path style="stroke:none;fill-rule:nonzero;fill:#fff;fill-opacity:1" d="m3.05 9.602.45 1.347-1.148-.847H3.75l-1.148.847Zm0 0"/></g><g clip-path="url(#O)"><path style="stroke:none;fill-rule:nonzero;fill:#fff;fill-opacity:1" d="m6.102 9.602.449 1.347-1.153-.847h1.403l-1.153.847Zm0 0"/></g><g clip-path="url(#P)"><path style="stroke:none;fill-rule:nonzero;fill:#fff;fill-opacity:1" d="m9.148 9.602.454 1.347-1.153-.847h1.403l-1.153.847Zm0 0"/></g><g clip-path="url(#Q)"><path style="stroke:none;fill-rule:nonzero;fill:#fff;fill-opacity:1" d="m12.148 9.602.454 1.347-1.153-.847h1.403l-1.153.847Zm0 0"/></g><g clip-path="url(#R)"><path style="stroke:none;fill-rule:nonzero;fill:#fff;fill-opacity:1" d="m15.2 9.602.448 1.347-1.148-.847h1.398l-1.148.847Zm0 0"/></g><g clip-path="url(#S)"><path style="stroke:none;fill-rule:nonzero;fill:#fff;fill-opacity:1" d="m1.5 10.898.45 1.352-1.15-.852h1.4l-1.15.852Zm0 0"/></g><g clip-path="url(#T)"><path style="stroke:none;fill-rule:nonzero;fill:#fff;fill-opacity:1" d="M4.55 10.898 5 12.25l-1.148-.852H5.25l-1.148.852Zm0 0"/></g><g clip-path="url(#U)"><path style="stroke:none;fill-rule:nonzero;fill:#fff;fill-opacity:1" d="m7.602 10.898.449 1.352-1.153-.852h1.403l-1.153.852Zm0 0"/></g><g clip-path="url(#V)"><path style="stroke:none;fill-rule:nonzero;fill:#fff;fill-opacity:1" d="m10.648 10.898.454 1.352-1.153-.852h1.403l-1.153.852Zm0 0"/></g><g clip-path="url(#W)"><path style="stroke:none;fill-rule:nonzero;fill:#fff;fill-opacity:1" d="m13.7 10.898.448 1.352L13 11.398h1.398l-1.148.852Zm0 0"/></g><g clip-path="url(#X)"><path style="stroke:none;fill-rule:nonzero;fill:#fff;fill-opacity:1" d="m16.7 10.898.448 1.352L16 11.398h1.398l-1.148.852Zm0 0"/></g></svg>